;Layer: Drill PTH
;EasyEDA v6.3.22, 2020-01-09T12:31:20+05:30
;bd4f618bde3a4eb5865f35d396bc4457,11778fa6cc0c40cc9ad434e143376f4a,10
;Gerber Generator version 0.2
M48
INCH,LZ,00.0000
;Holesize 1 = 0.035 INCH
T01C0.035
;Holesize 2 = 0.036 INCH
T02C0.036
;Holesize 3 = 0.039 INCH
T03C0.039
;Holesize 4 = 0.040 INCH
T04C0.040
;Holesize 5 = 0.043 INCH
T05C0.043
;Holesize 6 = 0.067 INCH
T06C0.067
%
G05
G90
T01
X+014950Y+005550
X+013950Y+005550
X+014950Y+006550
X+013950Y+006550
X+014950Y+007550
X+013950Y+007550
X+014950Y+008550
X+013950Y+008550
X+014950Y+009550
X+013950Y+009550
X+014950Y+010550
X+013950Y+010550
X+014950Y+011550
X+013950Y+011550
X+014950Y+012550
X+013950Y+012550
T02
X+013246Y+017091
X+014250Y+017091
X+015253Y+017091
X+015253Y+014808
X+014250Y+014808
X+013246Y+014808
X+005450Y+016550
X+005450Y+015550
X+005450Y+014550
X+005450Y+013550
X+005450Y+012550
X+005450Y+011550
X+005450Y+010550
X+005450Y+009550
X+005450Y+008550
X+005450Y+007550
X+005450Y+006550
X+005450Y+005550
X+005450Y+004550
X+005450Y+003550
X+005450Y+002550
X+011450Y+016550
X+011450Y+015550
X+011450Y+014550
X+011450Y+013550
X+011450Y+012550
X+011450Y+011550
X+011450Y+010550
X+011450Y+009550
X+011450Y+008550
X+011450Y+007550
X+011450Y+006550
X+011450Y+005550
X+011450Y+004550
X+011450Y+003550
X+011450Y+002550
T03
X+001900Y+004550
X+001900Y+005550
X+001900Y+006550
X+001900Y+007550
X+001900Y+008550
X+001900Y+009550
X+001900Y+010550
X+001900Y+011550
X+001900Y+012550
X+001900Y+013550
X+012950Y+005550
X+012950Y+006550
X+012950Y+007550
X+012950Y+008550
X+012950Y+009550
X+012950Y+010550
X+012950Y+011550
X+012950Y+012550
X+001900Y+003550
T04
X+001900Y+002550
T05
X+003900Y+002550
X+002900Y+002550
X+003900Y+003550
X+002900Y+003550
X+003900Y+004550
X+002900Y+004550
X+003900Y+005550
X+002900Y+005550
X+003900Y+006550
X+002900Y+006550
X+003900Y+007550
X+002900Y+007550
X+003900Y+008550
X+002900Y+008550
X+003900Y+009550
X+002900Y+009550
X+003900Y+010550
X+002900Y+010550
X+003900Y+011550
X+002900Y+011550
X+003900Y+012550
X+002900Y+012550
X+003900Y+013550
X+002900Y+013550
X+003900Y+014550
X+002900Y+014550
X+003900Y+015550
X+002900Y+015550
X+003900Y+016550
X+002900Y+016550
X+003900Y+017550
X+002900Y+017550
T06
X+013265Y+003050
X+015234Y+003050
M30
