G04 Layer: BottomLayer*
G04 EasyEDA v6.3.22, 2020-01-09T12:31:20+05:30*
G04 bd4f618bde3a4eb5865f35d396bc4457,11778fa6cc0c40cc9ad434e143376f4a,10*
G04 Gerber Generator version 0.2*
G04 Scale: 100 percent, Rotated: No, Reflected: No *
G04 Dimensions in inches *
G04 leading zeros omitted , absolute positions ,2 integer and 4 decimal *
%FSLAX24Y24*%
%MOIN*%
G90*
G70D02*

%ADD10C,0.010000*%
%ADD12C,0.015000*%
%ADD13C,0.060000*%
%ADD14R,0.062992X0.062992*%
%ADD15C,0.118110*%
%ADD16R,0.070000X0.070000*%
%ADD17C,0.070000*%
%ADD18C,0.062000*%
%ADD19R,0.062000X0.062000*%
%ADD20C,0.063937*%

%LPD*%
G54D10*
G01X17198Y19248D02*
G01X17198Y18693D01*
G01X16754Y19248D02*
G01X17198Y19248D01*
G01X17170Y18799D02*
G01X17198Y18799D01*
G01X17065Y18999D02*
G01X17198Y18999D01*
G01X16849Y19199D02*
G01X17198Y19199D01*
G01X17100Y18947D02*
G01X17100Y19248D01*
G01X16900Y19164D02*
G01X16900Y19248D01*
G01X11299Y14049D02*
G01X11297Y14051D01*
G01X11300Y14049D02*
G01X11300Y14050D01*
G01X11600Y13050D02*
G01X11602Y13048D01*
G01X12552Y12296D02*
G01X12496Y12296D01*
G01X12496Y12296D02*
G01X12496Y12420D01*
G01X12496Y12399D02*
G01X12503Y12399D01*
G01X12500Y12296D02*
G01X12500Y12409D01*
G01X151Y151D02*
G01X151Y19248D01*
G01X151Y19248D02*
G01X645Y19248D01*
G01X1254Y19248D02*
G01X5835Y19248D01*
G01X5828Y19200D02*
G01X5828Y18300D01*
G01X6000Y18128D02*
G01X10900Y18128D01*
G01X11071Y18300D02*
G01X11071Y19200D01*
G01X11064Y19248D02*
G01X16145Y19248D01*
G01X17198Y18406D02*
G01X17198Y5743D01*
G01X17198Y5456D02*
G01X17198Y151D01*
G01X17198Y151D02*
G01X151Y151D01*
G01X10724Y1475D02*
G01X11299Y2050D01*
G01X11948Y12702D02*
G01X12003Y12647D01*
G01X12003Y12647D02*
G01X12003Y12050D01*
G01X12250Y11803D02*
G01X12552Y11803D01*
G01X13347Y11803D02*
G01X13347Y11803D01*
G01X13347Y11803D02*
G01X13483Y11668D01*
G01X13831Y12016D02*
G01X13780Y12068D01*
G01X13780Y12068D02*
G01X14260Y12068D01*
G01X14431Y12240D02*
G01X14431Y12859D01*
G01X14260Y13031D02*
G01X13639Y13031D01*
G01X13468Y12859D02*
G01X13468Y12295D01*
G01X13450Y12296D02*
G01X13347Y12296D01*
G01X12496Y12679D02*
G01X12496Y12750D01*
G01X12424Y12924D02*
G01X11949Y13399D01*
G01X10950Y14296D02*
G01X5905Y14296D01*
G01X5657Y16028D02*
G01X5800Y16028D01*
G01X5971Y16200D02*
G01X5971Y16900D01*
G01X5800Y17071D02*
G01X5100Y17071D01*
G01X4928Y16900D02*
G01X4928Y16200D01*
G01X5100Y16028D02*
G01X5242Y16028D01*
G01X4994Y14296D02*
G01X4502Y14296D01*
G01X4502Y14296D02*
G01X4374Y14423D01*
G01X3475Y14796D02*
G01X3324Y14796D01*
G01X3324Y14303D02*
G01X3475Y14303D01*
G01X4026Y14075D02*
G01X4105Y13996D01*
G01X4400Y13803D02*
G01X4994Y13803D01*
G01X5905Y13803D02*
G01X10847Y13803D01*
G01X10847Y13803D02*
G01X10950Y13700D01*
G01X10950Y2399D02*
G01X10447Y1896D01*
G01X10447Y1896D02*
G01X4902Y1896D01*
G01X4902Y1896D02*
G01X4374Y2423D01*
G01X4026Y2075D02*
G01X4625Y1475D01*
G01X4800Y1403D02*
G01X10550Y1403D01*
G01X151Y199D02*
G01X819Y199D01*
G01X1080Y199D02*
G01X17198Y199D01*
G01X151Y399D02*
G01X423Y399D01*
G01X1476Y399D02*
G01X17198Y399D01*
G01X151Y599D02*
G01X273Y599D01*
G01X1626Y599D02*
G01X17198Y599D01*
G01X151Y799D02*
G01X203Y799D01*
G01X1696Y799D02*
G01X17198Y799D01*
G01X151Y999D02*
G01X189Y999D01*
G01X1710Y999D02*
G01X17198Y999D01*
G01X151Y1199D02*
G01X229Y1199D01*
G01X1670Y1199D02*
G01X17198Y1199D01*
G01X151Y1399D02*
G01X334Y1399D01*
G01X1565Y1399D02*
G01X17198Y1399D01*
G01X151Y1599D02*
G01X550Y1599D01*
G01X1349Y1599D02*
G01X4502Y1599D01*
G01X10847Y1599D02*
G01X17198Y1599D01*
G01X151Y1799D02*
G01X4302Y1799D01*
G01X11047Y1799D02*
G01X17198Y1799D01*
G01X151Y1999D02*
G01X4102Y1999D01*
G01X4799Y1999D02*
G01X10550Y1999D01*
G01X11247Y1999D02*
G01X17198Y1999D01*
G01X151Y2199D02*
G01X2556Y2199D01*
G01X3243Y2199D02*
G01X3556Y2199D01*
G01X4599Y2199D02*
G01X5064Y2199D01*
G01X5835Y2199D02*
G01X10750Y2199D01*
G01X11835Y2199D02*
G01X17198Y2199D01*
G01X151Y2399D02*
G01X2432Y2399D01*
G01X3367Y2399D02*
G01X3432Y2399D01*
G01X4399Y2399D02*
G01X4950Y2399D01*
G01X5949Y2399D02*
G01X10950Y2399D01*
G01X11949Y2399D02*
G01X12869Y2399D01*
G01X13662Y2399D02*
G01X17198Y2399D01*
G01X151Y2599D02*
G01X2411Y2599D01*
G01X3388Y2599D02*
G01X3411Y2599D01*
G01X4388Y2599D02*
G01X4930Y2599D01*
G01X5969Y2599D02*
G01X10930Y2599D01*
G01X11969Y2599D02*
G01X12651Y2599D01*
G01X13880Y2599D02*
G01X17198Y2599D01*
G01X151Y2799D02*
G01X2476Y2799D01*
G01X3323Y2799D02*
G01X3476Y2799D01*
G01X4323Y2799D02*
G01X4991Y2799D01*
G01X5908Y2799D02*
G01X10991Y2799D01*
G01X11908Y2799D02*
G01X12546Y2799D01*
G01X13985Y2799D02*
G01X17198Y2799D01*
G01X151Y2999D02*
G01X2701Y2999D01*
G01X3098Y2999D02*
G01X3701Y2999D01*
G01X4098Y2999D02*
G01X5185Y2999D01*
G01X5714Y2999D02*
G01X11185Y2999D01*
G01X11714Y2999D02*
G01X12505Y2999D01*
G01X14026Y2999D02*
G01X17198Y2999D01*
G01X151Y3199D02*
G01X2556Y3199D01*
G01X3243Y3199D02*
G01X3556Y3199D01*
G01X4243Y3199D02*
G01X5064Y3199D01*
G01X5835Y3199D02*
G01X11064Y3199D01*
G01X11835Y3199D02*
G01X12518Y3199D01*
G01X14013Y3199D02*
G01X17198Y3199D01*
G01X151Y3399D02*
G01X2432Y3399D01*
G01X3367Y3399D02*
G01X3432Y3399D01*
G01X4367Y3399D02*
G01X4950Y3399D01*
G01X5949Y3399D02*
G01X10950Y3399D01*
G01X11949Y3399D02*
G01X12588Y3399D01*
G01X13943Y3399D02*
G01X17198Y3399D01*
G01X151Y3599D02*
G01X2411Y3599D01*
G01X3388Y3599D02*
G01X3411Y3599D01*
G01X4388Y3599D02*
G01X4930Y3599D01*
G01X5969Y3599D02*
G01X10930Y3599D01*
G01X11969Y3599D02*
G01X12737Y3599D01*
G01X13794Y3599D02*
G01X17198Y3599D01*
G01X151Y3799D02*
G01X2476Y3799D01*
G01X3323Y3799D02*
G01X3476Y3799D01*
G01X4323Y3799D02*
G01X4991Y3799D01*
G01X5908Y3799D02*
G01X10991Y3799D01*
G01X11908Y3799D02*
G01X13126Y3799D01*
G01X13405Y3799D02*
G01X17198Y3799D01*
G01X151Y3999D02*
G01X2701Y3999D01*
G01X3098Y3999D02*
G01X3701Y3999D01*
G01X4098Y3999D02*
G01X5185Y3999D01*
G01X5714Y3999D02*
G01X11185Y3999D01*
G01X11714Y3999D02*
G01X17198Y3999D01*
G01X151Y4199D02*
G01X2556Y4199D01*
G01X3243Y4199D02*
G01X3556Y4199D01*
G01X4243Y4199D02*
G01X5064Y4199D01*
G01X5835Y4199D02*
G01X11064Y4199D01*
G01X11835Y4199D02*
G01X17198Y4199D01*
G01X151Y4399D02*
G01X2432Y4399D01*
G01X3367Y4399D02*
G01X3432Y4399D01*
G01X4367Y4399D02*
G01X4950Y4399D01*
G01X5949Y4399D02*
G01X10950Y4399D01*
G01X11949Y4399D02*
G01X17198Y4399D01*
G01X151Y4599D02*
G01X2411Y4599D01*
G01X3388Y4599D02*
G01X3411Y4599D01*
G01X4388Y4599D02*
G01X4930Y4599D01*
G01X5969Y4599D02*
G01X10930Y4599D01*
G01X11969Y4599D02*
G01X17198Y4599D01*
G01X151Y4799D02*
G01X2476Y4799D01*
G01X3323Y4799D02*
G01X3476Y4799D01*
G01X4323Y4799D02*
G01X4991Y4799D01*
G01X5908Y4799D02*
G01X10991Y4799D01*
G01X11908Y4799D02*
G01X17198Y4799D01*
G01X151Y4999D02*
G01X2701Y4999D01*
G01X3098Y4999D02*
G01X3701Y4999D01*
G01X4098Y4999D02*
G01X5185Y4999D01*
G01X5714Y4999D02*
G01X11185Y4999D01*
G01X11714Y4999D02*
G01X15981Y4999D01*
G01X16918Y4999D02*
G01X17198Y4999D01*
G01X151Y5199D02*
G01X2556Y5199D01*
G01X3243Y5199D02*
G01X3556Y5199D01*
G01X4243Y5199D02*
G01X5064Y5199D01*
G01X5835Y5199D02*
G01X11064Y5199D01*
G01X11835Y5199D02*
G01X12634Y5199D01*
G01X13265Y5199D02*
G01X13620Y5199D01*
G01X14279Y5199D02*
G01X15801Y5199D01*
G01X17098Y5199D02*
G01X17198Y5199D01*
G01X151Y5399D02*
G01X2432Y5399D01*
G01X3367Y5399D02*
G01X3432Y5399D01*
G01X4367Y5399D02*
G01X4950Y5399D01*
G01X5949Y5399D02*
G01X10950Y5399D01*
G01X11949Y5399D02*
G01X12503Y5399D01*
G01X13396Y5399D02*
G01X13492Y5399D01*
G01X14407Y5399D02*
G01X15714Y5399D01*
G01X17185Y5399D02*
G01X17198Y5399D01*
G01X151Y5599D02*
G01X2411Y5599D01*
G01X3388Y5599D02*
G01X3411Y5599D01*
G01X4388Y5599D02*
G01X4930Y5599D01*
G01X5969Y5599D02*
G01X10930Y5599D01*
G01X11969Y5599D02*
G01X12481Y5599D01*
G01X13418Y5599D02*
G01X13471Y5599D01*
G01X14428Y5599D02*
G01X15687Y5599D01*
G01X151Y5799D02*
G01X2476Y5799D01*
G01X3323Y5799D02*
G01X3476Y5799D01*
G01X4323Y5799D02*
G01X4991Y5799D01*
G01X5908Y5799D02*
G01X10991Y5799D01*
G01X11908Y5799D02*
G01X12549Y5799D01*
G01X13350Y5799D02*
G01X13537Y5799D01*
G01X14362Y5799D02*
G01X15714Y5799D01*
G01X17185Y5799D02*
G01X17198Y5799D01*
G01X151Y5999D02*
G01X2701Y5999D01*
G01X3098Y5999D02*
G01X3701Y5999D01*
G01X4098Y5999D02*
G01X5185Y5999D01*
G01X5714Y5999D02*
G01X11185Y5999D01*
G01X11714Y5999D02*
G01X12806Y5999D01*
G01X13093Y5999D02*
G01X13776Y5999D01*
G01X14123Y5999D02*
G01X15800Y5999D01*
G01X17099Y5999D02*
G01X17198Y5999D01*
G01X151Y6199D02*
G01X2556Y6199D01*
G01X3243Y6199D02*
G01X3556Y6199D01*
G01X4243Y6199D02*
G01X5064Y6199D01*
G01X5835Y6199D02*
G01X11064Y6199D01*
G01X11835Y6199D02*
G01X12634Y6199D01*
G01X13265Y6199D02*
G01X13620Y6199D01*
G01X14279Y6199D02*
G01X15979Y6199D01*
G01X16920Y6199D02*
G01X17198Y6199D01*
G01X151Y6399D02*
G01X2432Y6399D01*
G01X3367Y6399D02*
G01X3432Y6399D01*
G01X4367Y6399D02*
G01X4950Y6399D01*
G01X5949Y6399D02*
G01X10950Y6399D01*
G01X11949Y6399D02*
G01X12503Y6399D01*
G01X13396Y6399D02*
G01X13492Y6399D01*
G01X14407Y6399D02*
G01X17198Y6399D01*
G01X151Y6599D02*
G01X2411Y6599D01*
G01X3388Y6599D02*
G01X3411Y6599D01*
G01X4388Y6599D02*
G01X4930Y6599D01*
G01X5969Y6599D02*
G01X10930Y6599D01*
G01X11969Y6599D02*
G01X12481Y6599D01*
G01X13418Y6599D02*
G01X13471Y6599D01*
G01X14428Y6599D02*
G01X17198Y6599D01*
G01X151Y6799D02*
G01X2476Y6799D01*
G01X3323Y6799D02*
G01X3476Y6799D01*
G01X4323Y6799D02*
G01X4991Y6799D01*
G01X5908Y6799D02*
G01X10991Y6799D01*
G01X11908Y6799D02*
G01X12549Y6799D01*
G01X13350Y6799D02*
G01X13537Y6799D01*
G01X14362Y6799D02*
G01X17198Y6799D01*
G01X151Y6999D02*
G01X2701Y6999D01*
G01X3098Y6999D02*
G01X3701Y6999D01*
G01X4098Y6999D02*
G01X5185Y6999D01*
G01X5714Y6999D02*
G01X11185Y6999D01*
G01X11714Y6999D02*
G01X12806Y6999D01*
G01X13093Y6999D02*
G01X13776Y6999D01*
G01X14123Y6999D02*
G01X17198Y6999D01*
G01X151Y7199D02*
G01X2556Y7199D01*
G01X3243Y7199D02*
G01X3556Y7199D01*
G01X4243Y7199D02*
G01X5064Y7199D01*
G01X5835Y7199D02*
G01X11064Y7199D01*
G01X11835Y7199D02*
G01X12634Y7199D01*
G01X13265Y7199D02*
G01X13620Y7199D01*
G01X14279Y7199D02*
G01X17198Y7199D01*
G01X151Y7399D02*
G01X2432Y7399D01*
G01X3367Y7399D02*
G01X3432Y7399D01*
G01X4367Y7399D02*
G01X4950Y7399D01*
G01X5949Y7399D02*
G01X10950Y7399D01*
G01X11949Y7399D02*
G01X12503Y7399D01*
G01X13396Y7399D02*
G01X13492Y7399D01*
G01X14407Y7399D02*
G01X17198Y7399D01*
G01X151Y7599D02*
G01X2411Y7599D01*
G01X3388Y7599D02*
G01X3411Y7599D01*
G01X4388Y7599D02*
G01X4930Y7599D01*
G01X5969Y7599D02*
G01X10930Y7599D01*
G01X11969Y7599D02*
G01X12481Y7599D01*
G01X13418Y7599D02*
G01X13471Y7599D01*
G01X14428Y7599D02*
G01X17198Y7599D01*
G01X151Y7799D02*
G01X2476Y7799D01*
G01X3323Y7799D02*
G01X3476Y7799D01*
G01X4323Y7799D02*
G01X4991Y7799D01*
G01X5908Y7799D02*
G01X10991Y7799D01*
G01X11908Y7799D02*
G01X12549Y7799D01*
G01X13350Y7799D02*
G01X13537Y7799D01*
G01X14362Y7799D02*
G01X17198Y7799D01*
G01X151Y7999D02*
G01X2701Y7999D01*
G01X3098Y7999D02*
G01X3701Y7999D01*
G01X4098Y7999D02*
G01X5185Y7999D01*
G01X5714Y7999D02*
G01X11185Y7999D01*
G01X11714Y7999D02*
G01X12806Y7999D01*
G01X13093Y7999D02*
G01X13776Y7999D01*
G01X14123Y7999D02*
G01X17198Y7999D01*
G01X151Y8199D02*
G01X2556Y8199D01*
G01X3243Y8199D02*
G01X3556Y8199D01*
G01X4243Y8199D02*
G01X5064Y8199D01*
G01X5835Y8199D02*
G01X11064Y8199D01*
G01X11835Y8199D02*
G01X12634Y8199D01*
G01X13265Y8199D02*
G01X13620Y8199D01*
G01X14279Y8199D02*
G01X17198Y8199D01*
G01X151Y8399D02*
G01X2432Y8399D01*
G01X3367Y8399D02*
G01X3432Y8399D01*
G01X4367Y8399D02*
G01X4950Y8399D01*
G01X5949Y8399D02*
G01X10950Y8399D01*
G01X11949Y8399D02*
G01X12503Y8399D01*
G01X13396Y8399D02*
G01X13492Y8399D01*
G01X14407Y8399D02*
G01X17198Y8399D01*
G01X151Y8599D02*
G01X2411Y8599D01*
G01X3388Y8599D02*
G01X3411Y8599D01*
G01X4388Y8599D02*
G01X4930Y8599D01*
G01X5969Y8599D02*
G01X10930Y8599D01*
G01X11969Y8599D02*
G01X12481Y8599D01*
G01X13418Y8599D02*
G01X13471Y8599D01*
G01X14428Y8599D02*
G01X17198Y8599D01*
G01X151Y8799D02*
G01X2476Y8799D01*
G01X3323Y8799D02*
G01X3476Y8799D01*
G01X4323Y8799D02*
G01X4991Y8799D01*
G01X5908Y8799D02*
G01X10991Y8799D01*
G01X11908Y8799D02*
G01X12549Y8799D01*
G01X13350Y8799D02*
G01X13537Y8799D01*
G01X14362Y8799D02*
G01X17198Y8799D01*
G01X151Y8999D02*
G01X2701Y8999D01*
G01X3098Y8999D02*
G01X3701Y8999D01*
G01X4098Y8999D02*
G01X5185Y8999D01*
G01X5714Y8999D02*
G01X11185Y8999D01*
G01X11714Y8999D02*
G01X12806Y8999D01*
G01X13093Y8999D02*
G01X13776Y8999D01*
G01X14123Y8999D02*
G01X17198Y8999D01*
G01X151Y9199D02*
G01X2556Y9199D01*
G01X3243Y9199D02*
G01X3556Y9199D01*
G01X4243Y9199D02*
G01X5064Y9199D01*
G01X5835Y9199D02*
G01X11064Y9199D01*
G01X11835Y9199D02*
G01X12634Y9199D01*
G01X13265Y9199D02*
G01X13620Y9199D01*
G01X14279Y9199D02*
G01X17198Y9199D01*
G01X151Y9399D02*
G01X2432Y9399D01*
G01X3367Y9399D02*
G01X3432Y9399D01*
G01X4367Y9399D02*
G01X4950Y9399D01*
G01X5949Y9399D02*
G01X10950Y9399D01*
G01X11949Y9399D02*
G01X12503Y9399D01*
G01X13396Y9399D02*
G01X13492Y9399D01*
G01X14407Y9399D02*
G01X17198Y9399D01*
G01X151Y9599D02*
G01X2411Y9599D01*
G01X3388Y9599D02*
G01X3411Y9599D01*
G01X4388Y9599D02*
G01X4930Y9599D01*
G01X5969Y9599D02*
G01X10930Y9599D01*
G01X11969Y9599D02*
G01X12481Y9599D01*
G01X13418Y9599D02*
G01X13471Y9599D01*
G01X14428Y9599D02*
G01X17198Y9599D01*
G01X151Y9799D02*
G01X2476Y9799D01*
G01X3323Y9799D02*
G01X3476Y9799D01*
G01X4323Y9799D02*
G01X4991Y9799D01*
G01X5908Y9799D02*
G01X10991Y9799D01*
G01X11908Y9799D02*
G01X12549Y9799D01*
G01X13350Y9799D02*
G01X13537Y9799D01*
G01X14362Y9799D02*
G01X17198Y9799D01*
G01X151Y9999D02*
G01X2701Y9999D01*
G01X3098Y9999D02*
G01X3701Y9999D01*
G01X4098Y9999D02*
G01X5185Y9999D01*
G01X5714Y9999D02*
G01X11185Y9999D01*
G01X11714Y9999D02*
G01X12806Y9999D01*
G01X13093Y9999D02*
G01X13776Y9999D01*
G01X14123Y9999D02*
G01X17198Y9999D01*
G01X151Y10199D02*
G01X2556Y10199D01*
G01X3243Y10199D02*
G01X3556Y10199D01*
G01X4243Y10199D02*
G01X5064Y10199D01*
G01X5835Y10199D02*
G01X11064Y10199D01*
G01X11835Y10199D02*
G01X12634Y10199D01*
G01X13265Y10199D02*
G01X13620Y10199D01*
G01X14279Y10199D02*
G01X17198Y10199D01*
G01X151Y10399D02*
G01X2432Y10399D01*
G01X3367Y10399D02*
G01X3432Y10399D01*
G01X4367Y10399D02*
G01X4950Y10399D01*
G01X5949Y10399D02*
G01X10950Y10399D01*
G01X11949Y10399D02*
G01X12503Y10399D01*
G01X13396Y10399D02*
G01X13492Y10399D01*
G01X14407Y10399D02*
G01X17198Y10399D01*
G01X151Y10599D02*
G01X2411Y10599D01*
G01X3388Y10599D02*
G01X3411Y10599D01*
G01X4388Y10599D02*
G01X4930Y10599D01*
G01X5969Y10599D02*
G01X10930Y10599D01*
G01X11969Y10599D02*
G01X12481Y10599D01*
G01X13418Y10599D02*
G01X13471Y10599D01*
G01X14428Y10599D02*
G01X17198Y10599D01*
G01X151Y10799D02*
G01X2476Y10799D01*
G01X3323Y10799D02*
G01X3476Y10799D01*
G01X4323Y10799D02*
G01X4991Y10799D01*
G01X5908Y10799D02*
G01X10991Y10799D01*
G01X11908Y10799D02*
G01X12549Y10799D01*
G01X13350Y10799D02*
G01X13537Y10799D01*
G01X14362Y10799D02*
G01X17198Y10799D01*
G01X151Y10999D02*
G01X2701Y10999D01*
G01X3098Y10999D02*
G01X3701Y10999D01*
G01X4098Y10999D02*
G01X5185Y10999D01*
G01X5714Y10999D02*
G01X11185Y10999D01*
G01X11714Y10999D02*
G01X12806Y10999D01*
G01X13093Y10999D02*
G01X13776Y10999D01*
G01X14123Y10999D02*
G01X17198Y10999D01*
G01X151Y11199D02*
G01X2556Y11199D01*
G01X3243Y11199D02*
G01X3556Y11199D01*
G01X4243Y11199D02*
G01X5064Y11199D01*
G01X5835Y11199D02*
G01X11064Y11199D01*
G01X11835Y11199D02*
G01X12634Y11199D01*
G01X13265Y11199D02*
G01X13620Y11199D01*
G01X14279Y11199D02*
G01X17198Y11199D01*
G01X151Y11399D02*
G01X2432Y11399D01*
G01X3367Y11399D02*
G01X3432Y11399D01*
G01X4367Y11399D02*
G01X4950Y11399D01*
G01X5949Y11399D02*
G01X10950Y11399D01*
G01X11949Y11399D02*
G01X12503Y11399D01*
G01X13396Y11399D02*
G01X13492Y11399D01*
G01X14407Y11399D02*
G01X17198Y11399D01*
G01X151Y11599D02*
G01X2411Y11599D01*
G01X3388Y11599D02*
G01X3411Y11599D01*
G01X4388Y11599D02*
G01X4930Y11599D01*
G01X5969Y11599D02*
G01X10930Y11599D01*
G01X11969Y11599D02*
G01X12481Y11599D01*
G01X13418Y11599D02*
G01X13471Y11599D01*
G01X14428Y11599D02*
G01X17198Y11599D01*
G01X151Y11799D02*
G01X2476Y11799D01*
G01X3323Y11799D02*
G01X3476Y11799D01*
G01X4323Y11799D02*
G01X4991Y11799D01*
G01X5908Y11799D02*
G01X10991Y11799D01*
G01X11908Y11799D02*
G01X12549Y11799D01*
G01X13350Y11799D02*
G01X13352Y11799D01*
G01X14362Y11799D02*
G01X17198Y11799D01*
G01X151Y11999D02*
G01X2701Y11999D01*
G01X3098Y11999D02*
G01X3701Y11999D01*
G01X4098Y11999D02*
G01X5185Y11999D01*
G01X5714Y11999D02*
G01X11185Y11999D01*
G01X11714Y11999D02*
G01X12008Y11999D01*
G01X14123Y11999D02*
G01X17198Y11999D01*
G01X151Y12199D02*
G01X2556Y12199D01*
G01X3243Y12199D02*
G01X3556Y12199D01*
G01X4243Y12199D02*
G01X5064Y12199D01*
G01X5835Y12199D02*
G01X11064Y12199D01*
G01X11835Y12199D02*
G01X12003Y12199D01*
G01X14426Y12199D02*
G01X17198Y12199D01*
G01X151Y12399D02*
G01X2432Y12399D01*
G01X3367Y12399D02*
G01X3432Y12399D01*
G01X4367Y12399D02*
G01X4950Y12399D01*
G01X5949Y12399D02*
G01X10950Y12399D01*
G01X11949Y12399D02*
G01X12003Y12399D01*
G01X13396Y12399D02*
G01X13468Y12399D01*
G01X14431Y12399D02*
G01X17198Y12399D01*
G01X151Y12599D02*
G01X2411Y12599D01*
G01X3388Y12599D02*
G01X3411Y12599D01*
G01X4388Y12599D02*
G01X4930Y12599D01*
G01X5969Y12599D02*
G01X10930Y12599D01*
G01X11969Y12599D02*
G01X12003Y12599D01*
G01X13418Y12599D02*
G01X13468Y12599D01*
G01X14431Y12599D02*
G01X17198Y12599D01*
G01X151Y12799D02*
G01X2476Y12799D01*
G01X3323Y12799D02*
G01X3476Y12799D01*
G01X4323Y12799D02*
G01X4991Y12799D01*
G01X5908Y12799D02*
G01X10991Y12799D01*
G01X12491Y12799D02*
G01X12549Y12799D01*
G01X13350Y12799D02*
G01X13468Y12799D01*
G01X14431Y12799D02*
G01X17198Y12799D01*
G01X151Y12999D02*
G01X2701Y12999D01*
G01X3098Y12999D02*
G01X3701Y12999D01*
G01X4098Y12999D02*
G01X5185Y12999D01*
G01X5714Y12999D02*
G01X11185Y12999D01*
G01X12349Y12999D02*
G01X12806Y12999D01*
G01X13093Y12999D02*
G01X13539Y12999D01*
G01X14360Y12999D02*
G01X17198Y12999D01*
G01X151Y13199D02*
G01X2556Y13199D01*
G01X3243Y13199D02*
G01X3556Y13199D01*
G01X4243Y13199D02*
G01X5064Y13199D01*
G01X5835Y13199D02*
G01X11064Y13199D01*
G01X12149Y13199D02*
G01X17198Y13199D01*
G01X151Y13399D02*
G01X2432Y13399D01*
G01X3367Y13399D02*
G01X3432Y13399D01*
G01X4367Y13399D02*
G01X4950Y13399D01*
G01X5949Y13399D02*
G01X10950Y13399D01*
G01X11949Y13399D02*
G01X17198Y13399D01*
G01X151Y13599D02*
G01X2411Y13599D01*
G01X3388Y13599D02*
G01X3411Y13599D01*
G01X4388Y13599D02*
G01X4930Y13599D01*
G01X5969Y13599D02*
G01X10930Y13599D01*
G01X11969Y13599D02*
G01X17198Y13599D01*
G01X151Y13799D02*
G01X2476Y13799D01*
G01X3323Y13799D02*
G01X3476Y13799D01*
G01X4323Y13799D02*
G01X4991Y13799D01*
G01X5908Y13799D02*
G01X10852Y13799D01*
G01X11908Y13799D02*
G01X17198Y13799D01*
G01X151Y13999D02*
G01X2701Y13999D01*
G01X3098Y13999D02*
G01X3701Y13999D01*
G01X4098Y13999D02*
G01X4102Y13999D01*
G01X11714Y13999D02*
G01X17198Y13999D01*
G01X151Y14199D02*
G01X2556Y14199D01*
G01X3243Y14199D02*
G01X3556Y14199D01*
G01X11835Y14199D02*
G01X17198Y14199D01*
G01X151Y14399D02*
G01X2432Y14399D01*
G01X4399Y14399D02*
G01X4950Y14399D01*
G01X5949Y14399D02*
G01X10950Y14399D01*
G01X11949Y14399D02*
G01X13011Y14399D01*
G01X13480Y14399D02*
G01X14015Y14399D01*
G01X14484Y14399D02*
G01X15019Y14399D01*
G01X15488Y14399D02*
G01X17198Y14399D01*
G01X151Y14599D02*
G01X2411Y14599D01*
G01X4388Y14599D02*
G01X4930Y14599D01*
G01X5969Y14599D02*
G01X10930Y14599D01*
G01X11969Y14599D02*
G01X12823Y14599D01*
G01X13668Y14599D02*
G01X13827Y14599D01*
G01X14672Y14599D02*
G01X14831Y14599D01*
G01X15676Y14599D02*
G01X17198Y14599D01*
G01X151Y14799D02*
G01X2476Y14799D01*
G01X3323Y14799D02*
G01X3476Y14799D01*
G01X4323Y14799D02*
G01X4991Y14799D01*
G01X5908Y14799D02*
G01X10991Y14799D01*
G01X11908Y14799D02*
G01X12774Y14799D01*
G01X13717Y14799D02*
G01X13778Y14799D01*
G01X14721Y14799D02*
G01X14782Y14799D01*
G01X15725Y14799D02*
G01X17198Y14799D01*
G01X151Y14999D02*
G01X2701Y14999D01*
G01X3098Y14999D02*
G01X3701Y14999D01*
G01X4098Y14999D02*
G01X5185Y14999D01*
G01X5714Y14999D02*
G01X11185Y14999D01*
G01X11714Y14999D02*
G01X12814Y14999D01*
G01X13677Y14999D02*
G01X13818Y14999D01*
G01X14681Y14999D02*
G01X14822Y14999D01*
G01X15685Y14999D02*
G01X17198Y14999D01*
G01X151Y15199D02*
G01X3556Y15199D01*
G01X4243Y15199D02*
G01X5064Y15199D01*
G01X5835Y15199D02*
G01X12982Y15199D01*
G01X13509Y15199D02*
G01X13986Y15199D01*
G01X14513Y15199D02*
G01X14990Y15199D01*
G01X15517Y15199D02*
G01X17198Y15199D01*
G01X151Y15399D02*
G01X3432Y15399D01*
G01X4367Y15399D02*
G01X4950Y15399D01*
G01X5949Y15399D02*
G01X17198Y15399D01*
G01X151Y15599D02*
G01X3411Y15599D01*
G01X4388Y15599D02*
G01X4930Y15599D01*
G01X5969Y15599D02*
G01X17198Y15599D01*
G01X151Y15799D02*
G01X3476Y15799D01*
G01X4323Y15799D02*
G01X4991Y15799D01*
G01X5908Y15799D02*
G01X17198Y15799D01*
G01X151Y15999D02*
G01X3701Y15999D01*
G01X4098Y15999D02*
G01X5185Y15999D01*
G01X5714Y15999D02*
G01X17198Y15999D01*
G01X151Y16199D02*
G01X2556Y16199D01*
G01X3243Y16199D02*
G01X3556Y16199D01*
G01X4243Y16199D02*
G01X4928Y16199D01*
G01X5971Y16199D02*
G01X11064Y16199D01*
G01X11835Y16199D02*
G01X17198Y16199D01*
G01X151Y16399D02*
G01X2432Y16399D01*
G01X3367Y16399D02*
G01X3432Y16399D01*
G01X4367Y16399D02*
G01X4928Y16399D01*
G01X5971Y16399D02*
G01X10950Y16399D01*
G01X11949Y16399D02*
G01X17198Y16399D01*
G01X151Y16599D02*
G01X2411Y16599D01*
G01X3388Y16599D02*
G01X3411Y16599D01*
G01X4388Y16599D02*
G01X4928Y16599D01*
G01X5971Y16599D02*
G01X10930Y16599D01*
G01X11969Y16599D02*
G01X17198Y16599D01*
G01X151Y16799D02*
G01X2476Y16799D01*
G01X3323Y16799D02*
G01X3476Y16799D01*
G01X4323Y16799D02*
G01X4928Y16799D01*
G01X5971Y16799D02*
G01X10991Y16799D01*
G01X11908Y16799D02*
G01X12876Y16799D01*
G01X13616Y16799D02*
G01X13880Y16799D01*
G01X14619Y16799D02*
G01X14884Y16799D01*
G01X15623Y16799D02*
G01X17198Y16799D01*
G01X151Y16999D02*
G01X2701Y16999D01*
G01X3098Y16999D02*
G01X3701Y16999D01*
G01X4098Y16999D02*
G01X4960Y16999D01*
G01X5939Y16999D02*
G01X11185Y16999D01*
G01X11714Y16999D02*
G01X12783Y16999D01*
G01X13708Y16999D02*
G01X13787Y16999D01*
G01X14712Y16999D02*
G01X14791Y16999D01*
G01X15716Y16999D02*
G01X17198Y16999D01*
G01X151Y17199D02*
G01X2556Y17199D01*
G01X3243Y17199D02*
G01X3556Y17199D01*
G01X4243Y17199D02*
G01X12787Y17199D01*
G01X13705Y17199D02*
G01X13790Y17199D01*
G01X14709Y17199D02*
G01X14794Y17199D01*
G01X15712Y17199D02*
G01X17198Y17199D01*
G01X151Y17399D02*
G01X2432Y17399D01*
G01X3367Y17399D02*
G01X3432Y17399D01*
G01X4367Y17399D02*
G01X12888Y17399D01*
G01X13603Y17399D02*
G01X13892Y17399D01*
G01X14607Y17399D02*
G01X14896Y17399D01*
G01X15611Y17399D02*
G01X17198Y17399D01*
G01X151Y17599D02*
G01X2411Y17599D01*
G01X3388Y17599D02*
G01X3411Y17599D01*
G01X4388Y17599D02*
G01X17198Y17599D01*
G01X151Y17799D02*
G01X819Y17799D01*
G01X1080Y17799D02*
G01X2476Y17799D01*
G01X3323Y17799D02*
G01X3476Y17799D01*
G01X4323Y17799D02*
G01X16319Y17799D01*
G01X16580Y17799D02*
G01X17198Y17799D01*
G01X151Y17999D02*
G01X423Y17999D01*
G01X1476Y17999D02*
G01X2701Y17999D01*
G01X3098Y17999D02*
G01X3701Y17999D01*
G01X4098Y17999D02*
G01X15923Y17999D01*
G01X16976Y17999D02*
G01X17198Y17999D01*
G01X151Y18199D02*
G01X273Y18199D01*
G01X1626Y18199D02*
G01X5861Y18199D01*
G01X11038Y18199D02*
G01X15773Y18199D01*
G01X17126Y18199D02*
G01X17198Y18199D01*
G01X151Y18399D02*
G01X203Y18399D01*
G01X1696Y18399D02*
G01X5828Y18399D01*
G01X11071Y18399D02*
G01X15703Y18399D01*
G01X17196Y18399D02*
G01X17198Y18399D01*
G01X151Y18599D02*
G01X189Y18599D01*
G01X1710Y18599D02*
G01X5828Y18599D01*
G01X11071Y18599D02*
G01X15689Y18599D01*
G01X151Y18799D02*
G01X229Y18799D01*
G01X1670Y18799D02*
G01X5828Y18799D01*
G01X11071Y18799D02*
G01X15729Y18799D01*
G01X151Y18999D02*
G01X334Y18999D01*
G01X1565Y18999D02*
G01X5828Y18999D01*
G01X11071Y18999D02*
G01X15834Y18999D01*
G01X151Y19199D02*
G01X550Y19199D01*
G01X1349Y19199D02*
G01X5828Y19199D01*
G01X11071Y19199D02*
G01X16050Y19199D01*
G01X17100Y151D02*
G01X17100Y5202D01*
G01X17100Y5997D02*
G01X17100Y18152D01*
G01X16900Y151D02*
G01X16900Y4985D01*
G01X16900Y6214D02*
G01X16900Y17935D01*
G01X16700Y151D02*
G01X16700Y4880D01*
G01X16700Y6319D02*
G01X16700Y17830D01*
G01X16500Y151D02*
G01X16500Y4839D01*
G01X16500Y6360D02*
G01X16500Y17789D01*
G01X16300Y151D02*
G01X16300Y4852D01*
G01X16300Y6347D02*
G01X16300Y17802D01*
G01X16100Y151D02*
G01X16100Y4923D01*
G01X16100Y6276D02*
G01X16100Y17873D01*
G01X16100Y19226D02*
G01X16100Y19248D01*
G01X15900Y151D02*
G01X15900Y5072D01*
G01X15900Y6127D02*
G01X15900Y18022D01*
G01X15900Y19077D02*
G01X15900Y19248D01*
G01X15700Y151D02*
G01X15700Y5465D01*
G01X15700Y5734D02*
G01X15700Y14655D01*
G01X15700Y14961D02*
G01X15700Y16939D01*
G01X15700Y17244D02*
G01X15700Y18415D01*
G01X15700Y18684D02*
G01X15700Y19248D01*
G01X15500Y151D02*
G01X15500Y14406D01*
G01X15500Y15210D02*
G01X15500Y16689D01*
G01X15500Y17493D02*
G01X15500Y19248D01*
G01X15300Y151D02*
G01X15300Y14339D01*
G01X15300Y15277D02*
G01X15300Y16622D01*
G01X15300Y17560D02*
G01X15300Y19248D01*
G01X15100Y151D02*
G01X15100Y14362D01*
G01X15100Y15253D02*
G01X15100Y16646D01*
G01X15100Y17537D02*
G01X15100Y19248D01*
G01X14900Y151D02*
G01X14900Y14496D01*
G01X14900Y15119D02*
G01X14900Y16780D01*
G01X14900Y17403D02*
G01X14900Y19248D01*
G01X14700Y151D02*
G01X14700Y14667D01*
G01X14700Y14949D02*
G01X14700Y16950D01*
G01X14700Y17232D02*
G01X14700Y19248D01*
G01X14500Y151D02*
G01X14500Y14408D01*
G01X14500Y15208D02*
G01X14500Y16691D01*
G01X14500Y17491D02*
G01X14500Y19248D01*
G01X14300Y151D02*
G01X14300Y5219D01*
G01X14300Y5880D02*
G01X14300Y6219D01*
G01X14300Y6880D02*
G01X14300Y7219D01*
G01X14300Y7880D02*
G01X14300Y8219D01*
G01X14300Y8880D02*
G01X14300Y9219D01*
G01X14300Y9880D02*
G01X14300Y10219D01*
G01X14300Y10880D02*
G01X14300Y11219D01*
G01X14300Y11880D02*
G01X14300Y12073D01*
G01X14300Y13026D02*
G01X14300Y14339D01*
G01X14300Y15277D02*
G01X14300Y16622D01*
G01X14300Y17560D02*
G01X14300Y19248D01*
G01X14100Y151D02*
G01X14100Y5092D01*
G01X14100Y6007D02*
G01X14100Y6092D01*
G01X14100Y7007D02*
G01X14100Y7092D01*
G01X14100Y8007D02*
G01X14100Y8092D01*
G01X14100Y9007D02*
G01X14100Y9092D01*
G01X14100Y10007D02*
G01X14100Y10092D01*
G01X14100Y11007D02*
G01X14100Y11092D01*
G01X14100Y12007D02*
G01X14100Y12068D01*
G01X14100Y13031D02*
G01X14100Y14361D01*
G01X14100Y15255D02*
G01X14100Y16644D01*
G01X14100Y17538D02*
G01X14100Y19248D01*
G01X13900Y151D02*
G01X13900Y2627D01*
G01X13900Y3472D02*
G01X13900Y5071D01*
G01X13900Y6028D02*
G01X13900Y6071D01*
G01X13900Y7028D02*
G01X13900Y7071D01*
G01X13900Y8028D02*
G01X13900Y8071D01*
G01X13900Y9028D02*
G01X13900Y9071D01*
G01X13900Y10028D02*
G01X13900Y10071D01*
G01X13900Y11028D02*
G01X13900Y11071D01*
G01X13900Y12028D02*
G01X13900Y12068D01*
G01X13900Y13031D02*
G01X13900Y14492D01*
G01X13900Y15124D02*
G01X13900Y16775D01*
G01X13900Y17407D02*
G01X13900Y19248D01*
G01X13700Y151D02*
G01X13700Y2423D01*
G01X13700Y3676D02*
G01X13700Y5138D01*
G01X13700Y5961D02*
G01X13700Y6138D01*
G01X13700Y6961D02*
G01X13700Y7138D01*
G01X13700Y7961D02*
G01X13700Y8138D01*
G01X13700Y8961D02*
G01X13700Y9138D01*
G01X13700Y9961D02*
G01X13700Y10138D01*
G01X13700Y10961D02*
G01X13700Y11138D01*
G01X13700Y13031D02*
G01X13700Y14681D01*
G01X13700Y14935D02*
G01X13700Y16963D01*
G01X13700Y17220D02*
G01X13700Y19248D01*
G01X13500Y151D02*
G01X13500Y2324D01*
G01X13500Y3775D02*
G01X13500Y5378D01*
G01X13500Y5721D02*
G01X13500Y6378D01*
G01X13500Y6721D02*
G01X13500Y7378D01*
G01X13500Y7721D02*
G01X13500Y8378D01*
G01X13500Y8721D02*
G01X13500Y9378D01*
G01X13500Y9721D02*
G01X13500Y10378D01*
G01X13500Y10721D02*
G01X13500Y11378D01*
G01X13500Y12959D02*
G01X13500Y14411D01*
G01X13500Y15205D02*
G01X13500Y16694D01*
G01X13500Y17489D02*
G01X13500Y19248D01*
G01X13300Y151D02*
G01X13300Y2288D01*
G01X13300Y3811D02*
G01X13300Y5234D01*
G01X13300Y5865D02*
G01X13300Y6234D01*
G01X13300Y6865D02*
G01X13300Y7234D01*
G01X13300Y7865D02*
G01X13300Y8234D01*
G01X13300Y8865D02*
G01X13300Y9234D01*
G01X13300Y9865D02*
G01X13300Y10234D01*
G01X13300Y10865D02*
G01X13300Y11234D01*
G01X13300Y12865D02*
G01X13300Y14339D01*
G01X13300Y15276D02*
G01X13300Y16623D01*
G01X13300Y17560D02*
G01X13300Y19248D01*
G01X13100Y151D02*
G01X13100Y2306D01*
G01X13100Y3793D02*
G01X13100Y5102D01*
G01X13100Y5997D02*
G01X13100Y6102D01*
G01X13100Y6997D02*
G01X13100Y7102D01*
G01X13100Y7997D02*
G01X13100Y8102D01*
G01X13100Y8997D02*
G01X13100Y9102D01*
G01X13100Y9997D02*
G01X13100Y10102D01*
G01X13100Y10997D02*
G01X13100Y11102D01*
G01X13100Y12997D02*
G01X13100Y14359D01*
G01X13100Y15256D02*
G01X13100Y16643D01*
G01X13100Y17539D02*
G01X13100Y19248D01*
G01X12900Y151D02*
G01X12900Y2381D01*
G01X12900Y3718D02*
G01X12900Y5081D01*
G01X12900Y6018D02*
G01X12900Y6081D01*
G01X12900Y7018D02*
G01X12900Y7081D01*
G01X12900Y8018D02*
G01X12900Y8081D01*
G01X12900Y9018D02*
G01X12900Y9081D01*
G01X12900Y10018D02*
G01X12900Y10081D01*
G01X12900Y11018D02*
G01X12900Y11081D01*
G01X12900Y13018D02*
G01X12900Y14487D01*
G01X12900Y15128D02*
G01X12900Y16771D01*
G01X12900Y17411D02*
G01X12900Y19248D01*
G01X12700Y151D02*
G01X12700Y2539D01*
G01X12700Y3560D02*
G01X12700Y5150D01*
G01X12700Y5949D02*
G01X12700Y6150D01*
G01X12700Y6949D02*
G01X12700Y7150D01*
G01X12700Y7949D02*
G01X12700Y8150D01*
G01X12700Y8949D02*
G01X12700Y9150D01*
G01X12700Y9949D02*
G01X12700Y10150D01*
G01X12700Y10949D02*
G01X12700Y11150D01*
G01X12700Y12949D02*
G01X12700Y19248D01*
G01X12500Y151D02*
G01X12500Y5409D01*
G01X12500Y5690D02*
G01X12500Y6409D01*
G01X12500Y6690D02*
G01X12500Y7409D01*
G01X12500Y7690D02*
G01X12500Y8409D01*
G01X12500Y8690D02*
G01X12500Y9409D01*
G01X12500Y9690D02*
G01X12500Y10409D01*
G01X12500Y10690D02*
G01X12500Y11409D01*
G01X12500Y11690D02*
G01X12500Y11803D01*
G01X12500Y12690D02*
G01X12500Y19248D01*
G01X12300Y151D02*
G01X12300Y11803D01*
G01X12300Y13048D02*
G01X12300Y19248D01*
G01X12100Y151D02*
G01X12100Y11854D01*
G01X12100Y13248D02*
G01X12100Y19248D01*
G01X11900Y151D02*
G01X11900Y2286D01*
G01X11900Y2813D02*
G01X11900Y3286D01*
G01X11900Y3813D02*
G01X11900Y4286D01*
G01X11900Y4813D02*
G01X11900Y5286D01*
G01X11900Y5813D02*
G01X11900Y6286D01*
G01X11900Y6813D02*
G01X11900Y7286D01*
G01X11900Y7813D02*
G01X11900Y8286D01*
G01X11900Y8813D02*
G01X11900Y9286D01*
G01X11900Y9813D02*
G01X11900Y10286D01*
G01X11900Y10813D02*
G01X11900Y11286D01*
G01X11900Y11813D02*
G01X11900Y12286D01*
G01X11900Y13813D02*
G01X11900Y14286D01*
G01X11900Y14813D02*
G01X11900Y16286D01*
G01X11900Y16813D02*
G01X11900Y19248D01*
G01X11700Y151D02*
G01X11700Y2092D01*
G01X11700Y3007D02*
G01X11700Y3092D01*
G01X11700Y4007D02*
G01X11700Y4092D01*
G01X11700Y5007D02*
G01X11700Y5092D01*
G01X11700Y6007D02*
G01X11700Y6092D01*
G01X11700Y7007D02*
G01X11700Y7092D01*
G01X11700Y8007D02*
G01X11700Y8092D01*
G01X11700Y9007D02*
G01X11700Y9092D01*
G01X11700Y10007D02*
G01X11700Y10092D01*
G01X11700Y11007D02*
G01X11700Y11092D01*
G01X11700Y12007D02*
G01X11700Y12092D01*
G01X11700Y14007D02*
G01X11700Y14092D01*
G01X11700Y15007D02*
G01X11700Y16092D01*
G01X11700Y17007D02*
G01X11700Y19248D01*
G01X11500Y151D02*
G01X11500Y2030D01*
G01X11500Y15069D02*
G01X11500Y16030D01*
G01X11500Y17069D02*
G01X11500Y19248D01*
G01X11300Y151D02*
G01X11300Y2050D01*
G01X11300Y3049D02*
G01X11300Y3050D01*
G01X11300Y4049D02*
G01X11300Y4050D01*
G01X11300Y5049D02*
G01X11300Y5050D01*
G01X11300Y6049D02*
G01X11300Y6050D01*
G01X11300Y7049D02*
G01X11300Y7050D01*
G01X11300Y8049D02*
G01X11300Y8050D01*
G01X11300Y9049D02*
G01X11300Y9050D01*
G01X11300Y10049D02*
G01X11300Y10050D01*
G01X11300Y11049D02*
G01X11300Y11050D01*
G01X11300Y12049D02*
G01X11300Y12050D01*
G01X11300Y13049D02*
G01X11300Y13050D01*
G01X11300Y15049D02*
G01X11300Y16050D01*
G01X11300Y17049D02*
G01X11300Y19248D01*
G01X11100Y151D02*
G01X11100Y1851D01*
G01X11100Y2936D02*
G01X11100Y3163D01*
G01X11100Y3936D02*
G01X11100Y4163D01*
G01X11100Y4936D02*
G01X11100Y5163D01*
G01X11100Y5936D02*
G01X11100Y6163D01*
G01X11100Y6936D02*
G01X11100Y7163D01*
G01X11100Y7936D02*
G01X11100Y8163D01*
G01X11100Y8936D02*
G01X11100Y9163D01*
G01X11100Y9936D02*
G01X11100Y10163D01*
G01X11100Y10936D02*
G01X11100Y11163D01*
G01X11100Y11936D02*
G01X11100Y12163D01*
G01X11100Y12936D02*
G01X11100Y13163D01*
G01X11100Y14936D02*
G01X11100Y16163D01*
G01X11100Y16936D02*
G01X11100Y19248D01*
G01X10900Y151D02*
G01X10900Y1651D01*
G01X10900Y2348D02*
G01X10900Y13751D01*
G01X10900Y14296D02*
G01X10900Y18128D01*
G01X10700Y151D02*
G01X10700Y1454D01*
G01X10700Y2148D02*
G01X10700Y13803D01*
G01X10700Y14296D02*
G01X10700Y18128D01*
G01X10500Y151D02*
G01X10500Y1403D01*
G01X10500Y1948D02*
G01X10500Y13803D01*
G01X10500Y14296D02*
G01X10500Y18128D01*
G01X10300Y151D02*
G01X10300Y1403D01*
G01X10300Y1896D02*
G01X10300Y13803D01*
G01X10300Y14296D02*
G01X10300Y18128D01*
G01X10100Y151D02*
G01X10100Y1403D01*
G01X10100Y1896D02*
G01X10100Y13803D01*
G01X10100Y14296D02*
G01X10100Y18128D01*
G01X9900Y151D02*
G01X9900Y1403D01*
G01X9900Y1896D02*
G01X9900Y13803D01*
G01X9900Y14296D02*
G01X9900Y18128D01*
G01X9700Y151D02*
G01X9700Y1403D01*
G01X9700Y1896D02*
G01X9700Y13803D01*
G01X9700Y14296D02*
G01X9700Y18128D01*
G01X9500Y151D02*
G01X9500Y1403D01*
G01X9500Y1896D02*
G01X9500Y13803D01*
G01X9500Y14296D02*
G01X9500Y18128D01*
G01X9300Y151D02*
G01X9300Y1403D01*
G01X9300Y1896D02*
G01X9300Y13803D01*
G01X9300Y14296D02*
G01X9300Y18128D01*
G01X9100Y151D02*
G01X9100Y1403D01*
G01X9100Y1896D02*
G01X9100Y13803D01*
G01X9100Y14296D02*
G01X9100Y18128D01*
G01X8900Y151D02*
G01X8900Y1403D01*
G01X8900Y1896D02*
G01X8900Y13803D01*
G01X8900Y14296D02*
G01X8900Y18128D01*
G01X8700Y151D02*
G01X8700Y1403D01*
G01X8700Y1896D02*
G01X8700Y13803D01*
G01X8700Y14296D02*
G01X8700Y18128D01*
G01X8500Y151D02*
G01X8500Y1403D01*
G01X8500Y1896D02*
G01X8500Y13803D01*
G01X8500Y14296D02*
G01X8500Y18128D01*
G01X8300Y151D02*
G01X8300Y1403D01*
G01X8300Y1896D02*
G01X8300Y13803D01*
G01X8300Y14296D02*
G01X8300Y18128D01*
G01X8100Y151D02*
G01X8100Y1403D01*
G01X8100Y1896D02*
G01X8100Y13803D01*
G01X8100Y14296D02*
G01X8100Y18128D01*
G01X7900Y151D02*
G01X7900Y1403D01*
G01X7900Y1896D02*
G01X7900Y13803D01*
G01X7900Y14296D02*
G01X7900Y18128D01*
G01X7700Y151D02*
G01X7700Y1403D01*
G01X7700Y1896D02*
G01X7700Y13803D01*
G01X7700Y14296D02*
G01X7700Y18128D01*
G01X7500Y151D02*
G01X7500Y1403D01*
G01X7500Y1896D02*
G01X7500Y13803D01*
G01X7500Y14296D02*
G01X7500Y18128D01*
G01X7300Y151D02*
G01X7300Y1403D01*
G01X7300Y1896D02*
G01X7300Y13803D01*
G01X7300Y14296D02*
G01X7300Y18128D01*
G01X7100Y151D02*
G01X7100Y1403D01*
G01X7100Y1896D02*
G01X7100Y13803D01*
G01X7100Y14296D02*
G01X7100Y18128D01*
G01X6900Y151D02*
G01X6900Y1403D01*
G01X6900Y1896D02*
G01X6900Y13803D01*
G01X6900Y14296D02*
G01X6900Y18128D01*
G01X6700Y151D02*
G01X6700Y1403D01*
G01X6700Y1896D02*
G01X6700Y13803D01*
G01X6700Y14296D02*
G01X6700Y18128D01*
G01X6500Y151D02*
G01X6500Y1403D01*
G01X6500Y1896D02*
G01X6500Y13803D01*
G01X6500Y14296D02*
G01X6500Y18128D01*
G01X6300Y151D02*
G01X6300Y1403D01*
G01X6300Y1896D02*
G01X6300Y13803D01*
G01X6300Y14296D02*
G01X6300Y18128D01*
G01X6100Y151D02*
G01X6100Y1403D01*
G01X6100Y1896D02*
G01X6100Y13803D01*
G01X6100Y14296D02*
G01X6100Y18128D01*
G01X5900Y151D02*
G01X5900Y1403D01*
G01X5900Y1896D02*
G01X5900Y2286D01*
G01X5900Y2813D02*
G01X5900Y3286D01*
G01X5900Y3813D02*
G01X5900Y4286D01*
G01X5900Y4813D02*
G01X5900Y5286D01*
G01X5900Y5813D02*
G01X5900Y6286D01*
G01X5900Y6813D02*
G01X5900Y7286D01*
G01X5900Y7813D02*
G01X5900Y8286D01*
G01X5900Y8813D02*
G01X5900Y9286D01*
G01X5900Y9813D02*
G01X5900Y10286D01*
G01X5900Y10813D02*
G01X5900Y11286D01*
G01X5900Y11813D02*
G01X5900Y12286D01*
G01X5900Y12813D02*
G01X5900Y13286D01*
G01X5900Y14813D02*
G01X5900Y15286D01*
G01X5900Y15813D02*
G01X5900Y16060D01*
G01X5900Y17039D02*
G01X5900Y18160D01*
G01X5700Y151D02*
G01X5700Y1403D01*
G01X5700Y1896D02*
G01X5700Y2092D01*
G01X5700Y3007D02*
G01X5700Y3092D01*
G01X5700Y4007D02*
G01X5700Y4092D01*
G01X5700Y5007D02*
G01X5700Y5092D01*
G01X5700Y6007D02*
G01X5700Y6092D01*
G01X5700Y7007D02*
G01X5700Y7092D01*
G01X5700Y8007D02*
G01X5700Y8092D01*
G01X5700Y9007D02*
G01X5700Y9092D01*
G01X5700Y10007D02*
G01X5700Y10092D01*
G01X5700Y11007D02*
G01X5700Y11092D01*
G01X5700Y12007D02*
G01X5700Y12092D01*
G01X5700Y13007D02*
G01X5700Y13092D01*
G01X5700Y15007D02*
G01X5700Y15092D01*
G01X5700Y16007D02*
G01X5700Y16028D01*
G01X5700Y17071D02*
G01X5700Y19248D01*
G01X5500Y151D02*
G01X5500Y1403D01*
G01X5500Y1896D02*
G01X5500Y2030D01*
G01X5500Y17071D02*
G01X5500Y19248D01*
G01X5300Y151D02*
G01X5300Y1403D01*
G01X5300Y1896D02*
G01X5300Y2050D01*
G01X5300Y3049D02*
G01X5300Y3050D01*
G01X5300Y4049D02*
G01X5300Y4050D01*
G01X5300Y5049D02*
G01X5300Y5050D01*
G01X5300Y6049D02*
G01X5300Y6050D01*
G01X5300Y7049D02*
G01X5300Y7050D01*
G01X5300Y8049D02*
G01X5300Y8050D01*
G01X5300Y9049D02*
G01X5300Y9050D01*
G01X5300Y10049D02*
G01X5300Y10050D01*
G01X5300Y11049D02*
G01X5300Y11050D01*
G01X5300Y12049D02*
G01X5300Y12050D01*
G01X5300Y13049D02*
G01X5300Y13050D01*
G01X5300Y15049D02*
G01X5300Y15050D01*
G01X5300Y17071D02*
G01X5300Y19248D01*
G01X5100Y151D02*
G01X5100Y1403D01*
G01X5100Y1896D02*
G01X5100Y2163D01*
G01X5100Y2936D02*
G01X5100Y3163D01*
G01X5100Y3936D02*
G01X5100Y4163D01*
G01X5100Y4936D02*
G01X5100Y5163D01*
G01X5100Y5936D02*
G01X5100Y6163D01*
G01X5100Y6936D02*
G01X5100Y7163D01*
G01X5100Y7936D02*
G01X5100Y8163D01*
G01X5100Y8936D02*
G01X5100Y9163D01*
G01X5100Y9936D02*
G01X5100Y10163D01*
G01X5100Y10936D02*
G01X5100Y11163D01*
G01X5100Y11936D02*
G01X5100Y12163D01*
G01X5100Y12936D02*
G01X5100Y13163D01*
G01X5100Y14936D02*
G01X5100Y15163D01*
G01X5100Y15936D02*
G01X5100Y16028D01*
G01X5100Y17071D02*
G01X5100Y19248D01*
G01X4900Y151D02*
G01X4900Y1403D01*
G01X4900Y1898D02*
G01X4900Y13803D01*
G01X4900Y14296D02*
G01X4900Y19248D01*
G01X4700Y151D02*
G01X4700Y1424D01*
G01X4700Y2098D02*
G01X4700Y13803D01*
G01X4700Y14296D02*
G01X4700Y19248D01*
G01X4500Y151D02*
G01X4500Y1601D01*
G01X4500Y2298D02*
G01X4500Y13803D01*
G01X4500Y14298D02*
G01X4500Y19248D01*
G01X4300Y151D02*
G01X4300Y1801D01*
G01X4300Y2835D02*
G01X4300Y3264D01*
G01X4300Y3835D02*
G01X4300Y4264D01*
G01X4300Y4835D02*
G01X4300Y5264D01*
G01X4300Y5835D02*
G01X4300Y6264D01*
G01X4300Y6835D02*
G01X4300Y7264D01*
G01X4300Y7835D02*
G01X4300Y8264D01*
G01X4300Y8835D02*
G01X4300Y9264D01*
G01X4300Y9835D02*
G01X4300Y10264D01*
G01X4300Y10835D02*
G01X4300Y11264D01*
G01X4300Y11835D02*
G01X4300Y12264D01*
G01X4300Y12835D02*
G01X4300Y13264D01*
G01X4300Y14835D02*
G01X4300Y15264D01*
G01X4300Y15835D02*
G01X4300Y16264D01*
G01X4300Y16835D02*
G01X4300Y17264D01*
G01X4300Y17835D02*
G01X4300Y19248D01*
G01X4100Y151D02*
G01X4100Y2001D01*
G01X4100Y2998D02*
G01X4100Y3101D01*
G01X4100Y3998D02*
G01X4100Y4101D01*
G01X4100Y4998D02*
G01X4100Y5101D01*
G01X4100Y5998D02*
G01X4100Y6101D01*
G01X4100Y6998D02*
G01X4100Y7101D01*
G01X4100Y7998D02*
G01X4100Y8101D01*
G01X4100Y8998D02*
G01X4100Y9101D01*
G01X4100Y9998D02*
G01X4100Y10101D01*
G01X4100Y10998D02*
G01X4100Y11101D01*
G01X4100Y11998D02*
G01X4100Y12101D01*
G01X4100Y12998D02*
G01X4100Y13101D01*
G01X4100Y13998D02*
G01X4100Y14001D01*
G01X4100Y14998D02*
G01X4100Y15101D01*
G01X4100Y15998D02*
G01X4100Y16101D01*
G01X4100Y16998D02*
G01X4100Y17101D01*
G01X4100Y17998D02*
G01X4100Y19248D01*
G01X3900Y151D02*
G01X3900Y2058D01*
G01X3900Y3041D02*
G01X3900Y3058D01*
G01X3900Y4041D02*
G01X3900Y4058D01*
G01X3900Y5041D02*
G01X3900Y5058D01*
G01X3900Y6041D02*
G01X3900Y6058D01*
G01X3900Y7041D02*
G01X3900Y7058D01*
G01X3900Y8041D02*
G01X3900Y8058D01*
G01X3900Y9041D02*
G01X3900Y9058D01*
G01X3900Y10041D02*
G01X3900Y10058D01*
G01X3900Y11041D02*
G01X3900Y11058D01*
G01X3900Y12041D02*
G01X3900Y12058D01*
G01X3900Y13041D02*
G01X3900Y13058D01*
G01X3900Y14041D02*
G01X3900Y14058D01*
G01X3900Y15041D02*
G01X3900Y15058D01*
G01X3900Y16041D02*
G01X3900Y16058D01*
G01X3900Y17041D02*
G01X3900Y17058D01*
G01X3900Y18041D02*
G01X3900Y19248D01*
G01X3700Y151D02*
G01X3700Y2101D01*
G01X3700Y2998D02*
G01X3700Y3101D01*
G01X3700Y3998D02*
G01X3700Y4101D01*
G01X3700Y4998D02*
G01X3700Y5101D01*
G01X3700Y5998D02*
G01X3700Y6101D01*
G01X3700Y6998D02*
G01X3700Y7101D01*
G01X3700Y7998D02*
G01X3700Y8101D01*
G01X3700Y8998D02*
G01X3700Y9101D01*
G01X3700Y9998D02*
G01X3700Y10101D01*
G01X3700Y10998D02*
G01X3700Y11101D01*
G01X3700Y11998D02*
G01X3700Y12101D01*
G01X3700Y12998D02*
G01X3700Y13101D01*
G01X3700Y13998D02*
G01X3700Y14101D01*
G01X3700Y14998D02*
G01X3700Y15101D01*
G01X3700Y15998D02*
G01X3700Y16101D01*
G01X3700Y16998D02*
G01X3700Y17101D01*
G01X3700Y17998D02*
G01X3700Y19248D01*
G01X3500Y151D02*
G01X3500Y2264D01*
G01X3500Y2835D02*
G01X3500Y3264D01*
G01X3500Y3835D02*
G01X3500Y4264D01*
G01X3500Y4835D02*
G01X3500Y5264D01*
G01X3500Y5835D02*
G01X3500Y6264D01*
G01X3500Y6835D02*
G01X3500Y7264D01*
G01X3500Y7835D02*
G01X3500Y8264D01*
G01X3500Y8835D02*
G01X3500Y9264D01*
G01X3500Y9835D02*
G01X3500Y10264D01*
G01X3500Y10835D02*
G01X3500Y11264D01*
G01X3500Y11835D02*
G01X3500Y12264D01*
G01X3500Y12835D02*
G01X3500Y13264D01*
G01X3500Y13835D02*
G01X3500Y14264D01*
G01X3500Y14835D02*
G01X3500Y15264D01*
G01X3500Y15835D02*
G01X3500Y16264D01*
G01X3500Y16835D02*
G01X3500Y17264D01*
G01X3500Y17835D02*
G01X3500Y19248D01*
G01X3300Y151D02*
G01X3300Y2264D01*
G01X3300Y2835D02*
G01X3300Y3264D01*
G01X3300Y3835D02*
G01X3300Y4264D01*
G01X3300Y4835D02*
G01X3300Y5264D01*
G01X3300Y5835D02*
G01X3300Y6264D01*
G01X3300Y6835D02*
G01X3300Y7264D01*
G01X3300Y7835D02*
G01X3300Y8264D01*
G01X3300Y8835D02*
G01X3300Y9264D01*
G01X3300Y9835D02*
G01X3300Y10264D01*
G01X3300Y10835D02*
G01X3300Y11264D01*
G01X3300Y11835D02*
G01X3300Y12264D01*
G01X3300Y12835D02*
G01X3300Y13264D01*
G01X3300Y13835D02*
G01X3300Y14264D01*
G01X3300Y14835D02*
G01X3300Y16264D01*
G01X3300Y16835D02*
G01X3300Y17264D01*
G01X3300Y17835D02*
G01X3300Y19248D01*
G01X3100Y151D02*
G01X3100Y2101D01*
G01X3100Y2998D02*
G01X3100Y3101D01*
G01X3100Y3998D02*
G01X3100Y4101D01*
G01X3100Y4998D02*
G01X3100Y5101D01*
G01X3100Y5998D02*
G01X3100Y6101D01*
G01X3100Y6998D02*
G01X3100Y7101D01*
G01X3100Y7998D02*
G01X3100Y8101D01*
G01X3100Y8998D02*
G01X3100Y9101D01*
G01X3100Y9998D02*
G01X3100Y10101D01*
G01X3100Y10998D02*
G01X3100Y11101D01*
G01X3100Y11998D02*
G01X3100Y12101D01*
G01X3100Y12998D02*
G01X3100Y13101D01*
G01X3100Y13998D02*
G01X3100Y14101D01*
G01X3100Y14998D02*
G01X3100Y16101D01*
G01X3100Y16998D02*
G01X3100Y17101D01*
G01X3100Y17998D02*
G01X3100Y19248D01*
G01X2900Y151D02*
G01X2900Y2058D01*
G01X2900Y3041D02*
G01X2900Y3058D01*
G01X2900Y4041D02*
G01X2900Y4058D01*
G01X2900Y5041D02*
G01X2900Y5058D01*
G01X2900Y6041D02*
G01X2900Y6058D01*
G01X2900Y7041D02*
G01X2900Y7058D01*
G01X2900Y8041D02*
G01X2900Y8058D01*
G01X2900Y9041D02*
G01X2900Y9058D01*
G01X2900Y10041D02*
G01X2900Y10058D01*
G01X2900Y11041D02*
G01X2900Y11058D01*
G01X2900Y12041D02*
G01X2900Y12058D01*
G01X2900Y13041D02*
G01X2900Y13058D01*
G01X2900Y14041D02*
G01X2900Y14058D01*
G01X2900Y15041D02*
G01X2900Y16058D01*
G01X2900Y17041D02*
G01X2900Y17058D01*
G01X2900Y18041D02*
G01X2900Y19248D01*
G01X2700Y151D02*
G01X2700Y2101D01*
G01X2700Y2998D02*
G01X2700Y3101D01*
G01X2700Y3998D02*
G01X2700Y4101D01*
G01X2700Y4998D02*
G01X2700Y5101D01*
G01X2700Y5998D02*
G01X2700Y6101D01*
G01X2700Y6998D02*
G01X2700Y7101D01*
G01X2700Y7998D02*
G01X2700Y8101D01*
G01X2700Y8998D02*
G01X2700Y9101D01*
G01X2700Y9998D02*
G01X2700Y10101D01*
G01X2700Y10998D02*
G01X2700Y11101D01*
G01X2700Y11998D02*
G01X2700Y12101D01*
G01X2700Y12998D02*
G01X2700Y13101D01*
G01X2700Y13998D02*
G01X2700Y14101D01*
G01X2700Y14998D02*
G01X2700Y16101D01*
G01X2700Y16998D02*
G01X2700Y17101D01*
G01X2700Y17998D02*
G01X2700Y19248D01*
G01X2500Y151D02*
G01X2500Y2264D01*
G01X2500Y2835D02*
G01X2500Y3264D01*
G01X2500Y3835D02*
G01X2500Y4264D01*
G01X2500Y4835D02*
G01X2500Y5264D01*
G01X2500Y5835D02*
G01X2500Y6264D01*
G01X2500Y6835D02*
G01X2500Y7264D01*
G01X2500Y7835D02*
G01X2500Y8264D01*
G01X2500Y8835D02*
G01X2500Y9264D01*
G01X2500Y9835D02*
G01X2500Y10264D01*
G01X2500Y10835D02*
G01X2500Y11264D01*
G01X2500Y11835D02*
G01X2500Y12264D01*
G01X2500Y12835D02*
G01X2500Y13264D01*
G01X2500Y13835D02*
G01X2500Y14264D01*
G01X2500Y14835D02*
G01X2500Y16264D01*
G01X2500Y16835D02*
G01X2500Y17264D01*
G01X2500Y17835D02*
G01X2500Y19248D01*
G01X2300Y151D02*
G01X2300Y19248D01*
G01X2100Y151D02*
G01X2100Y19248D01*
G01X1900Y151D02*
G01X1900Y19248D01*
G01X1700Y151D02*
G01X1700Y815D01*
G01X1700Y1084D02*
G01X1700Y18415D01*
G01X1700Y18684D02*
G01X1700Y19248D01*
G01X1500Y151D02*
G01X1500Y422D01*
G01X1500Y1477D02*
G01X1500Y18022D01*
G01X1500Y19077D02*
G01X1500Y19248D01*
G01X1300Y151D02*
G01X1300Y273D01*
G01X1300Y1626D02*
G01X1300Y17873D01*
G01X1300Y19226D02*
G01X1300Y19248D01*
G01X1100Y151D02*
G01X1100Y202D01*
G01X1100Y1697D02*
G01X1100Y17802D01*
G01X900Y151D02*
G01X900Y189D01*
G01X900Y1710D02*
G01X900Y17789D01*
G01X700Y151D02*
G01X700Y230D01*
G01X700Y1669D02*
G01X700Y17830D01*
G01X500Y151D02*
G01X500Y335D01*
G01X500Y1564D02*
G01X500Y17935D01*
G01X500Y19164D02*
G01X500Y19248D01*
G01X300Y151D02*
G01X300Y552D01*
G01X300Y1347D02*
G01X300Y18152D01*
G01X300Y18947D02*
G01X300Y19248D01*
G54D12*
G01X11450Y2550D02*
G01X10550Y1650D01*
G01X4800Y1650D01*
G01X3900Y2550D01*
G01X2900Y14550D02*
G01X3900Y14550D01*
G01X3900Y14550D02*
G01X4400Y14050D01*
G01X10950Y14050D01*
G01X11450Y13550D01*
G01X11450Y13550D02*
G01X12250Y12750D01*
G01X12250Y12050D01*
G01X13450Y12050D01*
G01X13950Y11550D01*
G54D10*
G75*
G01X17198Y18693D02*
G03X16755Y19249I-748J-143D01*
G01*
G75*
G01X11297Y14051D02*
G03X11302Y14050I153J499D01*
G01*
G75*
G01X11302Y14050D02*
G03X11299Y14049I148J-500D01*
G01*
G75*
G01X11603Y13049D02*
G03X11598Y13050I-153J-499D01*
G01*
G75*
G01X11598Y13050D02*
G03X11601Y13051I-148J500D01*
G01*
G75*
G01X12497Y12421D02*
G03X12552Y12297I453J129D01*
G01*
G75*
G01X645Y19249D02*
G03X188Y18550I305J-699D01*
G01*
G75*
G01X188Y18550D02*
G03X950Y17788I762J0D01*
G01*
G75*
G01X950Y17788D02*
G03X1712Y18550I0J762D01*
G01*
G75*
G01X1712Y18550D02*
G03X1255Y19249I-762J0D01*
G01*
G75*
G01X5836Y19249D02*
G03X5828Y19200I164J-49D01*
G01*
G75*
G01X5828Y18300D02*
G03X6000Y18128I172J0D01*
G01*
G75*
G01X10900Y18128D02*
G03X11072Y18300I0J172D01*
G01*
G75*
G01X11072Y19200D02*
G03X11064Y19249I-172J0D01*
G01*
G75*
G01X16145Y19249D02*
G03X15688Y18550I305J-699D01*
G01*
G75*
G01X15688Y18550D02*
G03X16450Y17788I762J0D01*
G01*
G75*
G01X16450Y17788D02*
G03X17198Y18407I0J762D01*
G01*
G75*
G01X17198Y5743D02*
G03X16450Y6362I-748J-143D01*
G01*
G75*
G01X16450Y6362D02*
G03X15688Y5600I0J-762D01*
G01*
G75*
G01X15688Y5600D02*
G03X16450Y4838I762J0D01*
G01*
G75*
G01X16450Y4838D02*
G03X17198Y5457I0J762D01*
G01*
G75*
G01X10550Y1403D02*
G03X10724Y1476I0J247D01*
G01*
G75*
G01X11299Y2051D02*
G03X11450Y2028I151J499D01*
G01*
G75*
G01X11450Y2028D02*
G03X11972Y2550I0J522D01*
G01*
G75*
G01X11972Y2550D02*
G03X11598Y3050I-522J0D01*
G01*
G75*
G01X11598Y3050D02*
G03X11972Y3550I-148J500D01*
G01*
G75*
G01X11972Y3550D02*
G03X11598Y4050I-522J0D01*
G01*
G75*
G01X11598Y4050D02*
G03X11972Y4550I-148J500D01*
G01*
G75*
G01X11972Y4550D02*
G03X11598Y5050I-522J0D01*
G01*
G75*
G01X11598Y5050D02*
G03X11972Y5550I-148J500D01*
G01*
G75*
G01X11972Y5550D02*
G03X11598Y6050I-522J0D01*
G01*
G75*
G01X11598Y6050D02*
G03X11972Y6550I-148J500D01*
G01*
G75*
G01X11972Y6550D02*
G03X11598Y7050I-522J0D01*
G01*
G75*
G01X11598Y7050D02*
G03X11972Y7550I-148J500D01*
G01*
G75*
G01X11972Y7550D02*
G03X11598Y8050I-522J0D01*
G01*
G75*
G01X11598Y8050D02*
G03X11972Y8550I-148J500D01*
G01*
G75*
G01X11972Y8550D02*
G03X11598Y9050I-522J0D01*
G01*
G75*
G01X11598Y9050D02*
G03X11972Y9550I-148J500D01*
G01*
G75*
G01X11972Y9550D02*
G03X11598Y10050I-522J0D01*
G01*
G75*
G01X11598Y10050D02*
G03X11972Y10550I-148J500D01*
G01*
G75*
G01X11972Y10550D02*
G03X11598Y11050I-522J0D01*
G01*
G75*
G01X11598Y11050D02*
G03X11972Y11550I-148J500D01*
G01*
G75*
G01X11972Y11550D02*
G03X11598Y12050I-522J0D01*
G01*
G75*
G01X11598Y12050D02*
G03X11972Y12550I-148J500D01*
G01*
G75*
G01X11972Y12550D02*
G03X11949Y12703I-522J0D01*
G01*
G75*
G01X12003Y12050D02*
G03X12250Y11803I247J0D01*
G01*
G75*
G01X12552Y11803D02*
G03X12478Y11550I398J-253D01*
G01*
G75*
G01X12478Y11550D02*
G03X12950Y11078I472J0D01*
G01*
G75*
G01X12950Y11078D02*
G03X13422Y11550I0J472D01*
G01*
G75*
G01X13422Y11550D02*
G03X13348Y11803I-472J0D01*
G01*
G75*
G01X13483Y11668D02*
G03X13469Y11550I467J-118D01*
G01*
G75*
G01X13469Y11550D02*
G03X13950Y11068I481J0D01*
G01*
G75*
G01X13950Y11068D02*
G03X14431Y11550I0J482D01*
G01*
G75*
G01X14431Y11550D02*
G03X13950Y12032I-481J0D01*
G01*
G75*
G01X13950Y12032D02*
G03X13832Y12017I0J-482D01*
G01*
G75*
G01X14260Y12068D02*
G03X14431Y12240I0J172D01*
G01*
G75*
G01X14431Y12860D02*
G03X14260Y13032I-171J0D01*
G01*
G75*
G01X13640Y13032D02*
G03X13469Y12860I0J-172D01*
G01*
G75*
G01X13469Y12296D02*
G03X13450Y12297I-19J-246D01*
G01*
G75*
G01X13348Y12297D02*
G03X13422Y12550I-398J253D01*
G01*
G75*
G01X13422Y12550D02*
G03X12950Y13022I-472J0D01*
G01*
G75*
G01X12950Y13022D02*
G03X12497Y12679I0J-472D01*
G01*
G75*
G01X12497Y12750D02*
G03X12424Y12924I-247J0D01*
G01*
G75*
G01X11949Y13399D02*
G03X11972Y13550I-499J151D01*
G01*
G75*
G01X11972Y13550D02*
G03X11598Y14050I-522J0D01*
G01*
G75*
G01X11598Y14050D02*
G03X11972Y14550I-148J500D01*
G01*
G75*
G01X11972Y14550D02*
G03X11450Y15072I-522J0D01*
G01*
G75*
G01X11450Y15072D02*
G03X10928Y14550I0J-522D01*
G01*
G75*
G01X10928Y14550D02*
G03X10997Y14292I522J0D01*
G01*
G75*
G01X10997Y14292D02*
G03X10950Y14297I-47J-242D01*
G01*
G75*
G01X5906Y14297D02*
G03X5972Y14550I-456J253D01*
G01*
G75*
G01X5972Y14550D02*
G03X5598Y15050I-522J0D01*
G01*
G75*
G01X5598Y15050D02*
G03X5972Y15550I-148J500D01*
G01*
G75*
G01X5972Y15550D02*
G03X5657Y16028I-522J0D01*
G01*
G75*
G01X5800Y16028D02*
G03X5972Y16200I0J172D01*
G01*
G75*
G01X5972Y16900D02*
G03X5800Y17072I-172J0D01*
G01*
G75*
G01X5100Y17072D02*
G03X4928Y16900I0J-172D01*
G01*
G75*
G01X4928Y16200D02*
G03X5100Y16028I172J0D01*
G01*
G75*
G01X5243Y16028D02*
G03X4928Y15550I207J-478D01*
G01*
G75*
G01X4928Y15550D02*
G03X5302Y15050I522J0D01*
G01*
G75*
G01X5302Y15050D02*
G03X4928Y14550I148J-500D01*
G01*
G75*
G01X4928Y14550D02*
G03X4994Y14297I522J0D01*
G01*
G75*
G01X4375Y14424D02*
G03X4391Y14550I-475J126D01*
G01*
G75*
G01X4391Y14550D02*
G03X3900Y15041I-491J0D01*
G01*
G75*
G01X3900Y15041D02*
G03X3475Y14797I0J-491D01*
G01*
G75*
G01X3325Y14797D02*
G03X2900Y15041I-425J-247D01*
G01*
G75*
G01X2900Y15041D02*
G03X2409Y14550I0J-491D01*
G01*
G75*
G01X2409Y14550D02*
G03X2900Y14059I491J0D01*
G01*
G75*
G01X2900Y14059D02*
G03X3325Y14303I0J491D01*
G01*
G75*
G01X3475Y14303D02*
G03X3900Y14059I425J247D01*
G01*
G75*
G01X3900Y14059D02*
G03X4026Y14075I0J491D01*
G01*
G75*
G01X4105Y13996D02*
G03X3900Y14041I-205J-446D01*
G01*
G75*
G01X3900Y14041D02*
G03X3409Y13550I0J-491D01*
G01*
G75*
G01X3409Y13550D02*
G03X3900Y13059I491J0D01*
G01*
G75*
G01X3900Y13059D02*
G03X4391Y13550I0J491D01*
G01*
G75*
G01X4391Y13550D02*
G03X4310Y13821I-491J0D01*
G01*
G75*
G01X4310Y13821D02*
G03X4400Y13803I90J229D01*
G01*
G75*
G01X4994Y13803D02*
G03X4928Y13550I456J-253D01*
G01*
G75*
G01X4928Y13550D02*
G03X5302Y13050I522J0D01*
G01*
G75*
G01X5302Y13050D02*
G03X4928Y12550I148J-500D01*
G01*
G75*
G01X4928Y12550D02*
G03X5302Y12050I522J0D01*
G01*
G75*
G01X5302Y12050D02*
G03X4928Y11550I148J-500D01*
G01*
G75*
G01X4928Y11550D02*
G03X5302Y11050I522J0D01*
G01*
G75*
G01X5302Y11050D02*
G03X4928Y10550I148J-500D01*
G01*
G75*
G01X4928Y10550D02*
G03X5302Y10050I522J0D01*
G01*
G75*
G01X5302Y10050D02*
G03X4928Y9550I148J-500D01*
G01*
G75*
G01X4928Y9550D02*
G03X5302Y9050I522J0D01*
G01*
G75*
G01X5302Y9050D02*
G03X4928Y8550I148J-500D01*
G01*
G75*
G01X4928Y8550D02*
G03X5302Y8050I522J0D01*
G01*
G75*
G01X5302Y8050D02*
G03X4928Y7550I148J-500D01*
G01*
G75*
G01X4928Y7550D02*
G03X5302Y7050I522J0D01*
G01*
G75*
G01X5302Y7050D02*
G03X4928Y6550I148J-500D01*
G01*
G75*
G01X4928Y6550D02*
G03X5302Y6050I522J0D01*
G01*
G75*
G01X5302Y6050D02*
G03X4928Y5550I148J-500D01*
G01*
G75*
G01X4928Y5550D02*
G03X5302Y5050I522J0D01*
G01*
G75*
G01X5302Y5050D02*
G03X4928Y4550I148J-500D01*
G01*
G75*
G01X4928Y4550D02*
G03X5302Y4050I522J0D01*
G01*
G75*
G01X5302Y4050D02*
G03X4928Y3550I148J-500D01*
G01*
G75*
G01X4928Y3550D02*
G03X5302Y3050I522J0D01*
G01*
G75*
G01X5302Y3050D02*
G03X4928Y2550I148J-500D01*
G01*
G75*
G01X4928Y2550D02*
G03X5450Y2028I522J0D01*
G01*
G75*
G01X5450Y2028D02*
G03X5972Y2550I0J522D01*
G01*
G75*
G01X5972Y2550D02*
G03X5598Y3050I-522J0D01*
G01*
G75*
G01X5598Y3050D02*
G03X5972Y3550I-148J500D01*
G01*
G75*
G01X5972Y3550D02*
G03X5598Y4050I-522J0D01*
G01*
G75*
G01X5598Y4050D02*
G03X5972Y4550I-148J500D01*
G01*
G75*
G01X5972Y4550D02*
G03X5598Y5050I-522J0D01*
G01*
G75*
G01X5598Y5050D02*
G03X5972Y5550I-148J500D01*
G01*
G75*
G01X5972Y5550D02*
G03X5598Y6050I-522J0D01*
G01*
G75*
G01X5598Y6050D02*
G03X5972Y6550I-148J500D01*
G01*
G75*
G01X5972Y6550D02*
G03X5598Y7050I-522J0D01*
G01*
G75*
G01X5598Y7050D02*
G03X5972Y7550I-148J500D01*
G01*
G75*
G01X5972Y7550D02*
G03X5598Y8050I-522J0D01*
G01*
G75*
G01X5598Y8050D02*
G03X5972Y8550I-148J500D01*
G01*
G75*
G01X5972Y8550D02*
G03X5598Y9050I-522J0D01*
G01*
G75*
G01X5598Y9050D02*
G03X5972Y9550I-148J500D01*
G01*
G75*
G01X5972Y9550D02*
G03X5598Y10050I-522J0D01*
G01*
G75*
G01X5598Y10050D02*
G03X5972Y10550I-148J500D01*
G01*
G75*
G01X5972Y10550D02*
G03X5598Y11050I-522J0D01*
G01*
G75*
G01X5598Y11050D02*
G03X5972Y11550I-148J500D01*
G01*
G75*
G01X5972Y11550D02*
G03X5598Y12050I-522J0D01*
G01*
G75*
G01X5598Y12050D02*
G03X5972Y12550I-148J500D01*
G01*
G75*
G01X5972Y12550D02*
G03X5598Y13050I-522J0D01*
G01*
G75*
G01X5598Y13050D02*
G03X5972Y13550I-148J500D01*
G01*
G75*
G01X5972Y13550D02*
G03X5906Y13803I-522J0D01*
G01*
G75*
G01X10951Y13701D02*
G03X10928Y13550I499J-151D01*
G01*
G75*
G01X10928Y13550D02*
G03X11302Y13050I522J0D01*
G01*
G75*
G01X11302Y13050D02*
G03X10928Y12550I148J-500D01*
G01*
G75*
G01X10928Y12550D02*
G03X11302Y12050I522J0D01*
G01*
G75*
G01X11302Y12050D02*
G03X10928Y11550I148J-500D01*
G01*
G75*
G01X10928Y11550D02*
G03X11302Y11050I522J0D01*
G01*
G75*
G01X11302Y11050D02*
G03X10928Y10550I148J-500D01*
G01*
G75*
G01X10928Y10550D02*
G03X11302Y10050I522J0D01*
G01*
G75*
G01X11302Y10050D02*
G03X10928Y9550I148J-500D01*
G01*
G75*
G01X10928Y9550D02*
G03X11302Y9050I522J0D01*
G01*
G75*
G01X11302Y9050D02*
G03X10928Y8550I148J-500D01*
G01*
G75*
G01X10928Y8550D02*
G03X11302Y8050I522J0D01*
G01*
G75*
G01X11302Y8050D02*
G03X10928Y7550I148J-500D01*
G01*
G75*
G01X10928Y7550D02*
G03X11302Y7050I522J0D01*
G01*
G75*
G01X11302Y7050D02*
G03X10928Y6550I148J-500D01*
G01*
G75*
G01X10928Y6550D02*
G03X11302Y6050I522J0D01*
G01*
G75*
G01X11302Y6050D02*
G03X10928Y5550I148J-500D01*
G01*
G75*
G01X10928Y5550D02*
G03X11302Y5050I522J0D01*
G01*
G75*
G01X11302Y5050D02*
G03X10928Y4550I148J-500D01*
G01*
G75*
G01X10928Y4550D02*
G03X11302Y4050I522J0D01*
G01*
G75*
G01X11302Y4050D02*
G03X10928Y3550I148J-500D01*
G01*
G75*
G01X10928Y3550D02*
G03X11302Y3050I522J0D01*
G01*
G75*
G01X11302Y3050D02*
G03X10928Y2550I148J-500D01*
G01*
G75*
G01X10928Y2550D02*
G03X10951Y2399I522J0D01*
G01*
G75*
G01X4375Y2424D02*
G03X4391Y2550I-475J126D01*
G01*
G75*
G01X4391Y2550D02*
G03X3900Y3041I-491J0D01*
G01*
G75*
G01X3900Y3041D02*
G03X3409Y2550I0J-491D01*
G01*
G75*
G01X3409Y2550D02*
G03X3900Y2059I491J0D01*
G01*
G75*
G01X3900Y2059D02*
G03X4026Y2075I0J491D01*
G01*
G75*
G01X4626Y1476D02*
G03X4800Y1403I174J174D01*
G01*
G75*
G01X950Y188D02*
G03X1712Y950I0J762D01*
G01*
G75*
G01X1712Y950D02*
G03X950Y1712I-762J0D01*
G01*
G75*
G01X950Y1712D02*
G03X188Y950I0J-762D01*
G01*
G75*
G01X188Y950D02*
G03X950Y188I762J0D01*
G01*
G75*
G01X12504Y3050D02*
G03X13266Y2288I762J0D01*
G01*
G75*
G01X13266Y2288D02*
G03X14028Y3050I0J762D01*
G01*
G75*
G01X14028Y3050D02*
G03X13266Y3812I-762J0D01*
G01*
G75*
G01X13266Y3812D02*
G03X12504Y3050I0J-762D01*
G01*
G75*
G01X11450Y16028D02*
G03X11972Y16550I0J522D01*
G01*
G75*
G01X11972Y16550D02*
G03X11450Y17072I-522J0D01*
G01*
G75*
G01X11450Y17072D02*
G03X10928Y16550I0J-522D01*
G01*
G75*
G01X10928Y16550D02*
G03X11450Y16028I522J0D01*
G01*
G75*
G01X2409Y3550D02*
G03X2900Y3059I491J0D01*
G01*
G75*
G01X2900Y3059D02*
G03X3391Y3550I0J491D01*
G01*
G75*
G01X3391Y3550D02*
G03X2900Y4041I-491J0D01*
G01*
G75*
G01X2900Y4041D02*
G03X2409Y3550I0J-491D01*
G01*
G75*
G01X2409Y4550D02*
G03X2900Y4059I491J0D01*
G01*
G75*
G01X2900Y4059D02*
G03X3391Y4550I0J491D01*
G01*
G75*
G01X3391Y4550D02*
G03X2900Y5041I-491J0D01*
G01*
G75*
G01X2900Y5041D02*
G03X2409Y4550I0J-491D01*
G01*
G75*
G01X2900Y5059D02*
G03X3391Y5550I0J491D01*
G01*
G75*
G01X3391Y5550D02*
G03X2900Y6041I-491J0D01*
G01*
G75*
G01X2900Y6041D02*
G03X2409Y5550I0J-491D01*
G01*
G75*
G01X2409Y5550D02*
G03X2900Y5059I491J0D01*
G01*
G75*
G01X2900Y2059D02*
G03X3391Y2550I0J491D01*
G01*
G75*
G01X3391Y2550D02*
G03X2900Y3041I-491J0D01*
G01*
G75*
G01X2900Y3041D02*
G03X2409Y2550I0J-491D01*
G01*
G75*
G01X2409Y2550D02*
G03X2900Y2059I491J0D01*
G01*
G75*
G01X2900Y6059D02*
G03X3391Y6550I0J491D01*
G01*
G75*
G01X3391Y6550D02*
G03X2900Y7041I-491J0D01*
G01*
G75*
G01X2900Y7041D02*
G03X2409Y6550I0J-491D01*
G01*
G75*
G01X2409Y6550D02*
G03X2900Y6059I491J0D01*
G01*
G75*
G01X3409Y16550D02*
G03X3900Y16059I491J0D01*
G01*
G75*
G01X3900Y16059D02*
G03X4391Y16550I0J491D01*
G01*
G75*
G01X4391Y16550D02*
G03X3900Y17041I-491J0D01*
G01*
G75*
G01X3900Y17041D02*
G03X3409Y16550I0J-491D01*
G01*
G75*
G01X2900Y7059D02*
G03X3391Y7550I0J491D01*
G01*
G75*
G01X3391Y7550D02*
G03X2900Y8041I-491J0D01*
G01*
G75*
G01X2900Y8041D02*
G03X2409Y7550I0J-491D01*
G01*
G75*
G01X2409Y7550D02*
G03X2900Y7059I491J0D01*
G01*
G75*
G01X3409Y8550D02*
G03X3900Y8059I491J0D01*
G01*
G75*
G01X3900Y8059D02*
G03X4391Y8550I0J491D01*
G01*
G75*
G01X4391Y8550D02*
G03X3900Y9041I-491J0D01*
G01*
G75*
G01X3900Y9041D02*
G03X3409Y8550I0J-491D01*
G01*
G75*
G01X2409Y8550D02*
G03X2900Y8059I491J0D01*
G01*
G75*
G01X2900Y8059D02*
G03X3391Y8550I0J491D01*
G01*
G75*
G01X3391Y8550D02*
G03X2900Y9041I-491J0D01*
G01*
G75*
G01X2900Y9041D02*
G03X2409Y8550I0J-491D01*
G01*
G75*
G01X3409Y7550D02*
G03X3900Y7059I491J0D01*
G01*
G75*
G01X3900Y7059D02*
G03X4391Y7550I0J491D01*
G01*
G75*
G01X4391Y7550D02*
G03X3900Y8041I-491J0D01*
G01*
G75*
G01X3900Y8041D02*
G03X3409Y7550I0J-491D01*
G01*
G75*
G01X2409Y9550D02*
G03X2900Y9059I491J0D01*
G01*
G75*
G01X2900Y9059D02*
G03X3391Y9550I0J491D01*
G01*
G75*
G01X3391Y9550D02*
G03X2900Y10041I-491J0D01*
G01*
G75*
G01X2900Y10041D02*
G03X2409Y9550I0J-491D01*
G01*
G75*
G01X3900Y9059D02*
G03X4391Y9550I0J491D01*
G01*
G75*
G01X4391Y9550D02*
G03X3900Y10041I-491J0D01*
G01*
G75*
G01X3900Y10041D02*
G03X3409Y9550I0J-491D01*
G01*
G75*
G01X3409Y9550D02*
G03X3900Y9059I491J0D01*
G01*
G75*
G01X2409Y10550D02*
G03X2900Y10059I491J0D01*
G01*
G75*
G01X2900Y10059D02*
G03X3391Y10550I0J491D01*
G01*
G75*
G01X3391Y10550D02*
G03X2900Y11041I-491J0D01*
G01*
G75*
G01X2900Y11041D02*
G03X2409Y10550I0J-491D01*
G01*
G75*
G01X3900Y6059D02*
G03X4391Y6550I0J491D01*
G01*
G75*
G01X4391Y6550D02*
G03X3900Y7041I-491J0D01*
G01*
G75*
G01X3900Y7041D02*
G03X3409Y6550I0J-491D01*
G01*
G75*
G01X3409Y6550D02*
G03X3900Y6059I491J0D01*
G01*
G75*
G01X2409Y11550D02*
G03X2900Y11059I491J0D01*
G01*
G75*
G01X2900Y11059D02*
G03X3391Y11550I0J491D01*
G01*
G75*
G01X3391Y11550D02*
G03X2900Y12041I-491J0D01*
G01*
G75*
G01X2900Y12041D02*
G03X2409Y11550I0J-491D01*
G01*
G75*
G01X2900Y12059D02*
G03X3391Y12550I0J491D01*
G01*
G75*
G01X3391Y12550D02*
G03X2900Y13041I-491J0D01*
G01*
G75*
G01X2900Y13041D02*
G03X2409Y12550I0J-491D01*
G01*
G75*
G01X2409Y12550D02*
G03X2900Y12059I491J0D01*
G01*
G75*
G01X2900Y13059D02*
G03X3391Y13550I0J491D01*
G01*
G75*
G01X3391Y13550D02*
G03X2900Y14041I-491J0D01*
G01*
G75*
G01X2900Y14041D02*
G03X2409Y13550I0J-491D01*
G01*
G75*
G01X2409Y13550D02*
G03X2900Y13059I491J0D01*
G01*
G75*
G01X3900Y12059D02*
G03X4391Y12550I0J491D01*
G01*
G75*
G01X4391Y12550D02*
G03X3900Y13041I-491J0D01*
G01*
G75*
G01X3900Y13041D02*
G03X3409Y12550I0J-491D01*
G01*
G75*
G01X3409Y12550D02*
G03X3900Y12059I491J0D01*
G01*
G75*
G01X3900Y15059D02*
G03X4391Y15550I0J491D01*
G01*
G75*
G01X4391Y15550D02*
G03X3900Y16041I-491J0D01*
G01*
G75*
G01X3900Y16041D02*
G03X3409Y15550I0J-491D01*
G01*
G75*
G01X3409Y15550D02*
G03X3900Y15059I491J0D01*
G01*
G75*
G01X3900Y10059D02*
G03X4391Y10550I0J491D01*
G01*
G75*
G01X4391Y10550D02*
G03X3900Y11041I-491J0D01*
G01*
G75*
G01X3900Y11041D02*
G03X3409Y10550I0J-491D01*
G01*
G75*
G01X3409Y10550D02*
G03X3900Y10059I491J0D01*
G01*
G75*
G01X2409Y16550D02*
G03X2900Y16059I491J0D01*
G01*
G75*
G01X2900Y16059D02*
G03X3391Y16550I0J491D01*
G01*
G75*
G01X3391Y16550D02*
G03X2900Y17041I-491J0D01*
G01*
G75*
G01X2900Y17041D02*
G03X2409Y16550I0J-491D01*
G01*
G75*
G01X3900Y11059D02*
G03X4391Y11550I0J491D01*
G01*
G75*
G01X4391Y11550D02*
G03X3900Y12041I-491J0D01*
G01*
G75*
G01X3900Y12041D02*
G03X3409Y11550I0J-491D01*
G01*
G75*
G01X3409Y11550D02*
G03X3900Y11059I491J0D01*
G01*
G75*
G01X3900Y17059D02*
G03X4391Y17550I0J491D01*
G01*
G75*
G01X4391Y17550D02*
G03X3900Y18041I-491J0D01*
G01*
G75*
G01X3900Y18041D02*
G03X3409Y17550I0J-491D01*
G01*
G75*
G01X3409Y17550D02*
G03X3900Y17059I491J0D01*
G01*
G75*
G01X2409Y17550D02*
G03X2900Y17059I491J0D01*
G01*
G75*
G01X2900Y17059D02*
G03X3391Y17550I0J491D01*
G01*
G75*
G01X3391Y17550D02*
G03X2900Y18041I-491J0D01*
G01*
G75*
G01X2900Y18041D02*
G03X2409Y17550I0J-491D01*
G01*
G75*
G01X3900Y3059D02*
G03X4391Y3550I0J491D01*
G01*
G75*
G01X4391Y3550D02*
G03X3900Y4041I-491J0D01*
G01*
G75*
G01X3900Y4041D02*
G03X3409Y3550I0J-491D01*
G01*
G75*
G01X3409Y3550D02*
G03X3900Y3059I491J0D01*
G01*
G75*
G01X3900Y4059D02*
G03X4391Y4550I0J491D01*
G01*
G75*
G01X4391Y4550D02*
G03X3900Y5041I-491J0D01*
G01*
G75*
G01X3900Y5041D02*
G03X3409Y4550I0J-491D01*
G01*
G75*
G01X3409Y4550D02*
G03X3900Y4059I491J0D01*
G01*
G75*
G01X3409Y5550D02*
G03X3900Y5059I491J0D01*
G01*
G75*
G01X3900Y5059D02*
G03X4391Y5550I0J491D01*
G01*
G75*
G01X4391Y5550D02*
G03X3900Y6041I-491J0D01*
G01*
G75*
G01X3900Y6041D02*
G03X3409Y5550I0J-491D01*
G01*
G75*
G01X13469Y5550D02*
G03X13950Y5068I481J0D01*
G01*
G75*
G01X13950Y5068D02*
G03X14431Y5550I0J482D01*
G01*
G75*
G01X14431Y5550D02*
G03X13950Y6032I-481J0D01*
G01*
G75*
G01X13950Y6032D02*
G03X13469Y5550I0J-482D01*
G01*
G75*
G01X13469Y10550D02*
G03X13950Y10068I481J0D01*
G01*
G75*
G01X13950Y10068D02*
G03X14431Y10550I0J482D01*
G01*
G75*
G01X14431Y10550D02*
G03X13950Y11032I-481J0D01*
G01*
G75*
G01X13950Y11032D02*
G03X13469Y10550I0J-482D01*
G01*
G75*
G01X13950Y9068D02*
G03X14431Y9550I0J482D01*
G01*
G75*
G01X14431Y9550D02*
G03X13950Y10032I-481J0D01*
G01*
G75*
G01X13950Y10032D02*
G03X13469Y9550I0J-482D01*
G01*
G75*
G01X13469Y9550D02*
G03X13950Y9068I481J0D01*
G01*
G75*
G01X13950Y8068D02*
G03X14431Y8550I0J482D01*
G01*
G75*
G01X14431Y8550D02*
G03X13950Y9032I-481J0D01*
G01*
G75*
G01X13950Y9032D02*
G03X13469Y8550I0J-482D01*
G01*
G75*
G01X13469Y8550D02*
G03X13950Y8068I481J0D01*
G01*
G75*
G01X13469Y7550D02*
G03X13950Y7068I481J0D01*
G01*
G75*
G01X13950Y7068D02*
G03X14431Y7550I0J482D01*
G01*
G75*
G01X14431Y7550D02*
G03X13950Y8032I-481J0D01*
G01*
G75*
G01X13950Y8032D02*
G03X13469Y7550I0J-482D01*
G01*
G75*
G01X13469Y6550D02*
G03X13950Y6068I481J0D01*
G01*
G75*
G01X13950Y6068D02*
G03X14431Y6550I0J482D01*
G01*
G75*
G01X14431Y6550D02*
G03X13950Y7032I-481J0D01*
G01*
G75*
G01X13950Y7032D02*
G03X13469Y6550I0J-482D01*
G01*
G75*
G01X12950Y8078D02*
G03X13422Y8550I0J472D01*
G01*
G75*
G01X13422Y8550D02*
G03X12950Y9022I-472J0D01*
G01*
G75*
G01X12950Y9022D02*
G03X12478Y8550I0J-472D01*
G01*
G75*
G01X12478Y8550D02*
G03X12950Y8078I472J0D01*
G01*
G75*
G01X12950Y7078D02*
G03X13422Y7550I0J472D01*
G01*
G75*
G01X13422Y7550D02*
G03X12950Y8022I-472J0D01*
G01*
G75*
G01X12950Y8022D02*
G03X12478Y7550I0J-472D01*
G01*
G75*
G01X12478Y7550D02*
G03X12950Y7078I472J0D01*
G01*
G75*
G01X12478Y9550D02*
G03X12950Y9078I472J0D01*
G01*
G75*
G01X12950Y9078D02*
G03X13422Y9550I0J472D01*
G01*
G75*
G01X13422Y9550D02*
G03X12950Y10022I-472J0D01*
G01*
G75*
G01X12950Y10022D02*
G03X12478Y9550I0J-472D01*
G01*
G75*
G01X12478Y6550D02*
G03X12950Y6078I472J0D01*
G01*
G75*
G01X12950Y6078D02*
G03X13422Y6550I0J472D01*
G01*
G75*
G01X13422Y6550D02*
G03X12950Y7022I-472J0D01*
G01*
G75*
G01X12950Y7022D02*
G03X12478Y6550I0J-472D01*
G01*
G75*
G01X12478Y10550D02*
G03X12950Y10078I472J0D01*
G01*
G75*
G01X12950Y10078D02*
G03X13422Y10550I0J472D01*
G01*
G75*
G01X13422Y10550D02*
G03X12950Y11022I-472J0D01*
G01*
G75*
G01X12950Y11022D02*
G03X12478Y10550I0J-472D01*
G01*
G75*
G01X12950Y5078D02*
G03X13422Y5550I0J472D01*
G01*
G75*
G01X13422Y5550D02*
G03X12950Y6022I-472J0D01*
G01*
G75*
G01X12950Y6022D02*
G03X12478Y5550I0J-472D01*
G01*
G75*
G01X12478Y5550D02*
G03X12950Y5078I472J0D01*
G01*
G75*
G01X15254Y16620D02*
G03X15725Y17092I0J472D01*
G01*
G75*
G01X15725Y17092D02*
G03X15254Y17563I-471J0D01*
G01*
G75*
G01X15254Y17563D02*
G03X14782Y17092I0J-471D01*
G01*
G75*
G01X14782Y17092D02*
G03X15254Y16620I472J0D01*
G01*
G75*
G01X12774Y14808D02*
G03X13246Y14337I472J0D01*
G01*
G75*
G01X13246Y14337D02*
G03X13718Y14808I0J471D01*
G01*
G75*
G01X13718Y14808D02*
G03X13246Y15280I-472J0D01*
G01*
G75*
G01X13246Y15280D02*
G03X12774Y14808I0J-472D01*
G01*
G75*
G01X14782Y14808D02*
G03X15254Y14337I472J0D01*
G01*
G75*
G01X15254Y14337D02*
G03X15726Y14808I0J471D01*
G01*
G75*
G01X15726Y14808D02*
G03X15254Y15280I-472J0D01*
G01*
G75*
G01X15254Y15280D02*
G03X14782Y14808I0J-472D01*
G01*
G75*
G01X13778Y14808D02*
G03X14250Y14337I472J0D01*
G01*
G75*
G01X14250Y14337D02*
G03X14722Y14808I0J471D01*
G01*
G75*
G01X14722Y14808D02*
G03X14250Y15280I-472J0D01*
G01*
G75*
G01X14250Y15280D02*
G03X13778Y14808I0J-472D01*
G01*
G75*
G01X12775Y17092D02*
G03X13246Y16620I471J0D01*
G01*
G75*
G01X13246Y16620D02*
G03X13718Y17092I0J472D01*
G01*
G75*
G01X13718Y17092D02*
G03X13246Y17563I-472J0D01*
G01*
G75*
G01X13246Y17563D02*
G03X12775Y17092I0J-471D01*
G01*
G75*
G01X13778Y17092D02*
G03X14250Y16620I472J0D01*
G01*
G75*
G01X14250Y16620D02*
G03X14722Y17092I0J472D01*
G01*
G75*
G01X14722Y17092D02*
G03X14250Y17563I-472J0D01*
G01*
G75*
G01X14250Y17563D02*
G03X13778Y17092I0J-471D01*
G01*

%LPD*%
G36*
G01X10900Y19200D02*
G01X6000Y19200D01*
G01X6000Y18300D01*
G01X10900Y18300D01*
G01X10900Y19200D01*
G37*
G54D13*
G01X1900Y4550D03*
G01X1900Y5550D03*
G01X1900Y6550D03*
G01X1900Y7550D03*
G01X1900Y8550D03*
G01X1900Y9550D03*
G01X1900Y10550D03*
G01X1900Y11550D03*
G01X1900Y12550D03*
G01X1900Y13550D03*
G01X13246Y17091D03*
G01X14250Y17091D03*
G01X15253Y17091D03*
G01X15253Y14808D03*
G01X14250Y14808D03*
G01X13246Y14808D03*
G01X12950Y5550D03*
G01X12950Y6550D03*
G01X12950Y7550D03*
G01X12950Y8550D03*
G01X12950Y9550D03*
G01X12950Y10550D03*
G01X12950Y11550D03*
G01X12950Y12550D03*
G54D14*
G01X1900Y2550D03*
G54D13*
G01X1900Y3550D03*
G54D15*
G01X13265Y3050D03*
G01X15234Y3050D03*
G54D16*
G01X5450Y16550D03*
G54D17*
G01X5450Y15550D03*
G01X5450Y14550D03*
G01X5450Y13550D03*
G01X5450Y12550D03*
G01X5450Y11550D03*
G01X5450Y10550D03*
G01X5450Y9550D03*
G01X5450Y8550D03*
G01X5450Y7550D03*
G01X5450Y6550D03*
G01X5450Y5550D03*
G01X5450Y4550D03*
G01X5450Y3550D03*
G01X5450Y2550D03*
G01X11450Y16550D03*
G01X11450Y15550D03*
G01X11450Y14550D03*
G01X11450Y13550D03*
G01X11450Y12550D03*
G01X11450Y11550D03*
G01X11450Y10550D03*
G01X11450Y9550D03*
G01X11450Y8550D03*
G01X11450Y7550D03*
G01X11450Y6550D03*
G01X11450Y5550D03*
G01X11450Y4550D03*
G01X11450Y3550D03*
G01X11450Y2550D03*
G54D18*
G01X14950Y5550D03*
G01X13950Y5550D03*
G01X14950Y6550D03*
G01X13950Y6550D03*
G01X14950Y7550D03*
G01X13950Y7550D03*
G01X14950Y8550D03*
G01X13950Y8550D03*
G01X14950Y9550D03*
G01X13950Y9550D03*
G01X14950Y10550D03*
G01X13950Y10550D03*
G01X14950Y11550D03*
G01X13950Y11550D03*
G01X14950Y12550D03*
G54D19*
G01X13950Y12550D03*
G54D20*
G01X3900Y2550D03*
G01X2900Y2550D03*
G01X3900Y3550D03*
G01X2900Y3550D03*
G01X3900Y4550D03*
G01X2900Y4550D03*
G01X3900Y5550D03*
G01X2900Y5550D03*
G01X3900Y6550D03*
G01X2900Y6550D03*
G01X3900Y7550D03*
G01X2900Y7550D03*
G01X3900Y8550D03*
G01X2900Y8550D03*
G01X3900Y9550D03*
G01X2900Y9550D03*
G01X3900Y10550D03*
G01X2900Y10550D03*
G01X3900Y11550D03*
G01X2900Y11550D03*
G01X3900Y12550D03*
G01X2900Y12550D03*
G01X3900Y13550D03*
G01X2900Y13550D03*
G01X3900Y14550D03*
G01X2900Y14550D03*
G01X3900Y15550D03*
G01X2900Y15550D03*
G01X3900Y16550D03*
G01X2900Y16550D03*
G01X3900Y17550D03*
G01X2900Y17550D03*
M00*
M02*
