G04 Layer: BottomSilkLayer*
G04 EasyEDA v6.3.22, 2020-01-09T12:31:20+05:30*
G04 bd4f618bde3a4eb5865f35d396bc4457,11778fa6cc0c40cc9ad434e143376f4a,10*
G04 Gerber Generator version 0.2*
G04 Scale: 100 percent, Rotated: No, Reflected: No *
G04 Dimensions in inches *
G04 leading zeros omitted , absolute positions ,2 integer and 4 decimal *
%FSLAX24Y24*%
%MOIN*%
G90*
G70D02*


%LPD*%

%LPD*%
G36*
G01X8795Y11768D02*
G01X7625Y11768D01*
G01X7339Y11286D01*
G01X7319Y11253D01*
G01X7262Y11157D01*
G01X7244Y11127D01*
G01X7210Y11069D01*
G01X7193Y11041D01*
G01X7163Y10989D01*
G01X7148Y10965D01*
G01X7135Y10942D01*
G01X7122Y10921D01*
G01X7110Y10900D01*
G01X7098Y10882D01*
G01X7089Y10865D01*
G01X7079Y10849D01*
G01X7071Y10835D01*
G01X7064Y10823D01*
G01X7058Y10813D01*
G01X7053Y10805D01*
G01X7050Y10799D01*
G01X7047Y10795D01*
G01X7046Y10793D01*
G01X7046Y10786D01*
G01X7050Y10772D01*
G01X7058Y10755D01*
G01X7068Y10736D01*
G01X7096Y10689D01*
G01X6581Y9800D01*
G01X6838Y9355D01*
G01X7096Y8909D01*
G01X7068Y8863D01*
G01X7058Y8844D01*
G01X7050Y8827D01*
G01X7046Y8813D01*
G01X7046Y8806D01*
G01X7047Y8804D01*
G01X7050Y8800D01*
G01X7053Y8794D01*
G01X7058Y8786D01*
G01X7064Y8776D01*
G01X7071Y8764D01*
G01X7079Y8750D01*
G01X7088Y8734D01*
G01X7098Y8717D01*
G01X7110Y8699D01*
G01X7134Y8657D01*
G01X7148Y8634D01*
G01X7162Y8610D01*
G01X7177Y8584D01*
G01X7193Y8558D01*
G01X7210Y8530D01*
G01X7244Y8472D01*
G01X7262Y8442D01*
G01X7319Y8346D01*
G01X7338Y8313D01*
G01X7625Y7831D01*
G01X8795Y7831D01*
G01X8741Y7929D01*
G01X8686Y8028D01*
G01X9658Y8034D01*
G01X9340Y8604D01*
G01X7946Y8612D01*
G01X7790Y8881D01*
G01X7769Y8917D01*
G01X7750Y8953D01*
G01X7730Y8986D01*
G01X7712Y9018D01*
G01X7696Y9047D01*
G01X7681Y9073D01*
G01X7668Y9097D01*
G01X7656Y9117D01*
G01X7647Y9134D01*
G01X7641Y9147D01*
G01X7635Y9159D01*
G01X7637Y9164D01*
G01X7643Y9175D01*
G01X7652Y9191D01*
G01X7663Y9212D01*
G01X7677Y9236D01*
G01X7693Y9264D01*
G01X7711Y9294D01*
G01X7731Y9326D01*
G01X7826Y9484D01*
G01X8616Y9484D01*
G01X8701Y9635D01*
G01X8719Y9665D01*
G01X8735Y9693D01*
G01X8751Y9719D01*
G01X8777Y9758D01*
G01X8786Y9772D01*
G01X8793Y9780D01*
G01X8797Y9782D01*
G01X8798Y9782D01*
G01X8802Y9776D01*
G01X8806Y9771D01*
G01X8810Y9764D01*
G01X8815Y9756D01*
G01X8820Y9747D01*
G01X8827Y9737D01*
G01X8841Y9713D01*
G01X8859Y9683D01*
G01X8868Y9667D01*
G01X8879Y9650D01*
G01X8901Y9612D01*
G01X8913Y9591D01*
G01X8926Y9570D01*
G01X8939Y9547D01*
G01X8953Y9524D01*
G01X8967Y9500D01*
G01X8982Y9475D01*
G01X8997Y9449D01*
G01X9013Y9422D01*
G01X9029Y9394D01*
G01X9046Y9366D01*
G01X9063Y9337D01*
G01X9097Y9277D01*
G01X9116Y9246D01*
G01X9134Y9214D01*
G01X9153Y9182D01*
G01X9191Y9116D01*
G01X9231Y9048D01*
G01X9271Y8978D01*
G01X9292Y8943D01*
G01X9312Y8907D01*
G01X9817Y8034D01*
G01X10467Y8027D01*
G01X10332Y8287D01*
G01X10327Y8298D01*
G01X10320Y8310D01*
G01X10313Y8323D01*
G01X10306Y8337D01*
G01X10298Y8352D01*
G01X10289Y8367D01*
G01X10281Y8384D01*
G01X10272Y8401D01*
G01X10252Y8437D01*
G01X10241Y8456D01*
G01X10219Y8496D01*
G01X10207Y8517D01*
G01X10183Y8561D01*
G01X10171Y8584D01*
G01X10145Y8630D01*
G01X10131Y8654D01*
G01X10118Y8678D01*
G01X10076Y8753D01*
G01X10047Y8804D01*
G01X10032Y8830D01*
G01X10018Y8857D01*
G01X10002Y8883D01*
G01X9972Y8936D01*
G01X9942Y8988D01*
G01X9912Y9042D01*
G01X9882Y9094D01*
G01X9852Y9147D01*
G01X9837Y9173D01*
G01X9476Y9799D01*
G01X9814Y10387D01*
G01X9829Y10411D01*
G01X9857Y10461D01*
G01X9872Y10486D01*
G01X9901Y10536D01*
G01X9916Y10561D01*
G01X9931Y10587D01*
G01X9946Y10612D01*
G01X9961Y10638D01*
G01X9976Y10663D01*
G01X10006Y10714D01*
G01X10035Y10764D01*
G01X10050Y10789D01*
G01X10064Y10814D01*
G01X10093Y10863D01*
G01X10108Y10887D01*
G01X10122Y10911D01*
G01X10136Y10934D01*
G01X10149Y10957D01*
G01X10163Y10980D01*
G01X10176Y11002D01*
G01X10189Y11023D01*
G01X10202Y11045D01*
G01X10214Y11065D01*
G01X10227Y11086D01*
G01X10239Y11105D01*
G01X10250Y11125D01*
G01X10272Y11161D01*
G01X10282Y11178D01*
G01X10302Y11210D01*
G01X10311Y11225D01*
G01X10320Y11239D01*
G01X10336Y11265D01*
G01X10355Y11294D01*
G01X10372Y11323D01*
G01X10390Y11351D01*
G01X10406Y11378D01*
G01X10422Y11404D01*
G01X10438Y11428D01*
G01X10452Y11451D01*
G01X10464Y11472D01*
G01X10476Y11492D01*
G01X10487Y11509D01*
G01X10496Y11524D01*
G01X10504Y11537D01*
G01X10510Y11548D01*
G01X10514Y11556D01*
G01X10517Y11561D01*
G01X10518Y11563D01*
G01X10516Y11564D01*
G01X10511Y11565D01*
G01X10502Y11566D01*
G01X10490Y11566D01*
G01X10476Y11567D01*
G01X10458Y11567D01*
G01X10438Y11568D01*
G01X10415Y11568D01*
G01X10390Y11569D01*
G01X10203Y11569D01*
G01X10168Y11568D01*
G01X9818Y11565D01*
G01X9715Y11388D01*
G01X9710Y11380D01*
G01X9705Y11371D01*
G01X9699Y11361D01*
G01X9693Y11350D01*
G01X9686Y11338D01*
G01X9670Y11310D01*
G01X9661Y11296D01*
G01X9652Y11280D01*
G01X9643Y11263D01*
G01X9632Y11246D01*
G01X9622Y11227D01*
G01X9611Y11208D01*
G01X9599Y11188D01*
G01X9588Y11168D01*
G01X9575Y11146D01*
G01X9563Y11125D01*
G01X9550Y11102D01*
G01X9536Y11079D01*
G01X9508Y11031D01*
G01X9480Y10981D01*
G01X9464Y10955D01*
G01X9450Y10929D01*
G01X9434Y10902D01*
G01X9418Y10876D01*
G01X9387Y10821D01*
G01X9355Y10765D01*
G01X9338Y10736D01*
G01X9305Y10679D01*
G01X9288Y10650D01*
G01X9272Y10621D01*
G01X9204Y10505D01*
G01X8797Y9800D01*
G01X8706Y9957D01*
G01X8616Y10115D01*
G01X7824Y10115D01*
G01X7730Y10273D01*
G01X7710Y10306D01*
G01X7693Y10336D01*
G01X7677Y10364D01*
G01X7663Y10388D01*
G01X7651Y10409D01*
G01X7643Y10425D01*
G01X7637Y10436D01*
G01X7635Y10441D01*
G01X7636Y10444D01*
G01X7641Y10453D01*
G01X7647Y10465D01*
G01X7656Y10482D01*
G01X7668Y10502D01*
G01X7681Y10526D01*
G01X7696Y10552D01*
G01X7713Y10582D01*
G01X7731Y10613D01*
G01X7750Y10646D01*
G01X7770Y10682D01*
G01X7791Y10718D01*
G01X7947Y10987D01*
G01X8643Y10991D01*
G01X9340Y10994D01*
G01X9499Y11280D01*
G01X9658Y11565D01*
G01X8686Y11571D01*
G01X8741Y11670D01*
G01X8795Y11768D01*
G37*

%LPC*%
G36*
G01X7441Y10098D02*
G01X7438Y10101D01*
G01X7435Y10098D01*
G01X7429Y10090D01*
G01X7421Y10077D01*
G01X7410Y10059D01*
G01X7397Y10039D01*
G01X7383Y10015D01*
G01X7368Y9988D01*
G01X7352Y9960D01*
G01X7336Y9931D01*
G01X7321Y9904D01*
G01X7308Y9878D01*
G01X7296Y9855D01*
G01X7286Y9835D01*
G01X7279Y9818D01*
G01X7273Y9800D01*
G01X7275Y9792D01*
G01X7280Y9780D01*
G01X7287Y9763D01*
G01X7297Y9743D01*
G01X7309Y9720D01*
G01X7322Y9694D01*
G01X7336Y9668D01*
G01X7351Y9640D01*
G01X7366Y9613D01*
G01X7381Y9588D01*
G01X7395Y9563D01*
G01X7408Y9542D01*
G01X7419Y9524D01*
G01X7428Y9510D01*
G01X7435Y9501D01*
G01X7439Y9498D01*
G01X7442Y9501D01*
G01X7449Y9510D01*
G01X7459Y9524D01*
G01X7471Y9542D01*
G01X7485Y9565D01*
G01X7501Y9590D01*
G01X7518Y9619D01*
G01X7536Y9649D01*
G01X7625Y9800D01*
G01X7535Y9951D01*
G01X7517Y9981D01*
G01X7499Y10009D01*
G01X7483Y10035D01*
G01X7469Y10057D01*
G01X7457Y10076D01*
G01X7448Y10089D01*
G01X7441Y10098D01*
G37*

%LPD*%
M00*
M02*
